<?xml version="1.0" standalone="no"?>
<!DOCTYPE svg PUBLIC "-//W3C//DTD SVG 1.1//EN" "http://www.w3.org/Graphics/SVG/1.1/DTD/svg11.dtd" >
<svg xmlns="http://www.w3.org/2000/svg">
<metadata>Generated by IcoMoon</metadata>
<defs>
<font id="suteki-icon" horiz-adv-x="1024">
<font-face units-per-em="1024" ascent="960" descent="-64" />
<missing-glyph horiz-adv-x="1024" />
<glyph unicode="&#x20;" horiz-adv-x="512" d="" />
<glyph unicode="&#xe900;" glyph-name="action-cam" d="M532.48 871.552c-18.176-4.736-37.632-18.347-48.043-33.664l-4.011-5.845-160.427-0.128c-178.859-0.128-172.501 0.256-192.725-11.904-11.947-7.168-26.837-22.827-32.597-34.219-9.685-19.072-9.344-10.581-9.344-231.125 0-221.269-0.384-211.968 9.6-231.68 5.803-11.477 24.576-30.251 36.053-36.053 18.987-9.6 18.816-9.6 140.715-9.6h112.299l0.085-110.507c0.043-87.851 0.512-111.829 2.347-116.907 3.371-9.429 10.283-17.664 19.371-22.997l8.064-4.736h196.267l8.064 4.736c9.088 5.333 16 13.568 19.371 22.997 1.835 5.077 2.304 29.056 2.347 116.907l0.085 110.507h90.965c98.603 0 100.779 0.171 119.381 9.6 11.349 5.76 30.208 24.533 35.883 35.755 8.917 17.536 9.771 24.917 9.771 82.901l0.043 53.504 6.016 4.096c8.747 5.973 22.485 21.547 27.179 30.805 9.515 18.816 9.429 17.109 9.387 166.741 0 149.291 0 149.461-9.301 167.723-5.76 11.392-20.651 27.051-32.597 34.219-20.224 12.203-13.824 11.776-192.725 11.776-145.451 0-161.451-0.256-171.52-2.901zM853.333 661.333v-128h-298.667v256h298.667v-128zM469.333 634.368c0-121.899 0-121.728 9.6-140.715 5.803-11.477 24.576-30.251 36.053-36.053 19.243-9.728 16.853-9.6 162.048-9.6h133.632v-85.333h-640v384h298.667v-112.299zM682.837 722.603c-8.448-2.56-22.315-11.904-29.013-19.499-3.83-4.678-7.241-9.958-10.025-15.602l-0.215-0.483c-3.797-8.107-4.437-11.776-4.437-25.685 0-14.037 0.64-17.536 4.565-25.984 9.472-20.139 27.392-33.664 49.237-37.077 29.909-4.651 57.387 9.173 70.315 35.413 5.12 10.453 5.589 12.672 5.589 27.648s-0.469 17.195-5.589 27.648c-6.746 13.174-17.224 23.625-30.034 30.157l-0.388 0.179c-7.083 3.541-11.136 4.267-26.283 4.608-9.856 0.256-20.523-0.384-23.723-1.323zM285.653 658.901c-10.333-3.519-18.737-10.43-24.080-19.381l-0.112-0.203c-3.883-6.656-4.608-9.813-4.608-20.651 0-10.923 0.683-13.995 4.736-20.864 5.333-9.088 13.568-16 22.997-19.371 8.875-3.157 61.952-3.157 70.827 0 9.429 3.371 17.664 10.283 22.997 19.371 4.053 6.869 4.736 9.941 4.736 20.864 0 10.837-0.725 13.995-4.608 20.651-5.526 9.348-14.195 16.34-24.524 19.586l-0.308 0.084c-10.24 3.072-58.112 3.029-68.053-0.085zM554.667 192v-85.333h-85.333v170.667h85.333v-85.333z" />
<glyph unicode="&#xe901;" glyph-name="activity" horiz-adv-x="1109" d="M405.333 873.131c-10.652-3.1-19.406-9.845-25.024-18.763l-0.106-0.181c-3.285-5.675-102.4-277.035-131.029-358.741l-1.792-5.077h-163.499l-10.027-5.077c-30.464-15.445-32.171-54.784-3.285-73.899l7.723-5.12 101.845-0.555c76.971-0.427 103.851 0 110.123 1.749 6.614 2.151 12.225 5.848 16.612 10.678l0.028 0.031c8.235 8.32 8.917 9.984 58.112 146.603 27.349 76.032 50.304 138.24 50.944 138.24 0.683 0 54.272-147.072 119.125-326.827 64.853-179.712 119.979-330.368 122.539-334.763 7.339-12.093 20.436-20.050 35.39-20.050 4.537 0 8.903 0.732 12.987 2.085l-0.291-0.084c11.834 3.322 21.255 11.666 25.97 22.527l0.099 0.257c2.987 6.955 116.395 319.616 127.403 351.317l2.731 7.851h80.725c51.968 0 83.285 0.725 87.893 2.005 9.557 2.645 23.68 16.896 26.624 26.88 6.528 21.973-2.347 42.368-22.571 51.755l-9.387 4.352h-201.515l-9.387-4.352c-5.781-2.842-10.699-6.534-14.819-10.976l-0.029-0.032c-4.181-5.035-17.664-40.363-55.211-144.469-27.349-75.776-50.219-137.771-50.901-137.771-0.64 0-53.035 143.701-116.395 319.36-172.071 519.374-212.968 629.637-254.185 739.743l133.524-406.901c-6.4 15.573-14.165 23.125-28.117 27.307-9.899 2.944-13.568 3.115-22.827 0.896z" />
<glyph unicode="&#xe902;" glyph-name="agenda-left" d="M319.019 871.552c-29.44-7.68-55.168-34.688-61.312-64.341-1.195-5.76-1.664-35.157-1.365-83.883l0.512-75.051 5.163-8.405c7.549-12.6 21.13-20.904 36.651-20.904s29.102 8.304 36.543 20.711l0.107 0.193 5.163 8.405 0.512 70.528 0.469 70.528h469.205v-127.445l-9.131-2.048c-11.563-2.603-22.016-10.24-28.032-20.437-3.968-6.741-4.651-9.856-4.651-20.864 0-11.435 0.597-13.909 5.163-21.333 6.272-10.197 18.645-18.901 29.013-20.437l7.637-1.152v-84.395l-9.131-2.048c-11.563-2.603-22.016-10.24-28.032-20.437-3.968-6.741-4.651-9.856-4.651-20.864 0-11.435 0.597-13.909 5.163-21.333 6.272-10.197 18.645-18.901 29.013-20.437l7.637-1.152v-84.395l-9.131-2.048c-11.563-2.603-22.016-10.24-28.032-20.437-3.968-6.741-4.651-9.856-4.651-20.864 0-11.435 0.597-13.909 5.163-21.333 6.272-10.197 18.645-18.901 29.013-20.437l7.637-1.152v-127.616h-172.971c-187.691 0-182.016 0.256-194.731-9.429-3.413-2.603-8.32-8.277-10.837-12.587-3.883-6.656-4.608-9.813-4.608-20.651 0-10.923 0.683-13.995 4.736-20.864 5.333-9.088 13.568-16 22.997-19.371 5.205-1.835 40.533-2.304 186.539-2.347 196.053-0.085 188.971-0.427 208.555 9.515 11.349 5.76 30.208 24.533 35.883 35.755 9.259 18.219 9.771 23.552 9.771 98.475v69.12l7.637 1.152c10.368 1.536 22.741 10.24 29.013 20.437 4.565 7.424 5.163 9.899 5.163 21.333 0 11.008-0.683 14.123-4.651 20.864-6.172 10.179-16.055 17.583-27.73 20.376l-0.302 0.061-9.131 2.048v84.395l7.637 1.152c10.368 1.536 22.741 10.24 29.013 20.437 4.565 7.424 5.163 9.899 5.163 21.333 0 11.008-0.683 14.123-4.651 20.864-6.172 10.179-16.055 17.583-27.73 20.376l-0.302 0.061-9.131 2.048v84.395l7.637 1.152c10.368 1.536 22.741 10.24 29.013 20.437 4.565 7.424 5.163 9.899 5.163 21.333 0 11.008-0.683 14.123-4.651 20.864-6.172 10.179-16.055 17.583-27.73 20.376l-0.302 0.061-9.131 2.048-0.043 68.395c0 73.856-0.725 81.28-9.301 98.176-5.76 11.392-20.651 27.051-32.597 34.219-20.779 12.501-3.925 11.776-278.059 11.776-226.816 0-246.613-0.213-256.981-2.901zM148.352 530.219c-28.629-7.509-52.864-32-60.459-61.227-2.176-8.32-2.56-33.237-2.56-167.808 0-142.507 0.299-158.891 2.816-166.485 2.475-7.339 8.747-14.379 49.92-55.893 25.899-26.155 50.56-49.579 54.784-52.053 6.485-3.84 9.685-4.565 20.48-4.565s13.995 0.725 20.48 4.565c4.224 2.475 28.885 25.899 54.784 52.053 41.173 41.515 47.445 48.555 49.92 55.893 2.517 7.595 2.816 23.893 2.816 164.907 0 99.285-0.64 159.829-1.749 165.632-5.632 29.781-31.488 57.216-61.269 64.981-16.597 4.309-113.365 4.309-129.963 0zM256 307.584v-140.373l-42.667-42.581-42.667 42.581v280.789h85.333v-140.416z" />
<glyph unicode="&#xe903;" glyph-name="airplay" d="M149.291 872.832c-47.744-8.064-86.955-42.88-101.76-90.325l-4.011-12.8v-472.747l4.011-12.8c13.074-41.576 45.006-73.733 85.508-86.863l0.935-0.262c10.368-3.328 16.683-3.925 47.787-4.608 23.253-0.512 38.315-0.128 42.837 1.109 9.941 2.688 20.181 10.667 25.728 20.139 4.139 7.040 4.821 10.027 4.821 20.992 0 10.837-0.725 13.995-4.608 20.651-5.037 8.308-12.313 14.816-20.994 18.78l-0.296 0.121c-2.816 1.195-18.731 2.432-38.101 2.987-32.256 0.939-33.536 1.109-41.131 5.589-9.348 5.526-16.34 14.195-19.586 24.524l-0.084 0.308c-1.92 6.443-2.347 45.995-2.347 225.664 0 245.675-0.853 229.291 12.928 243.115 14.037 14.037-17.536 12.928 371.072 12.928s357.035 1.109 371.072-12.928c13.781-13.824 12.928 2.56 12.928-243.115 0-179.669-0.427-219.221-2.347-225.664-3.329-10.637-10.321-19.306-19.468-24.721l-0.202-0.111c-7.595-4.48-8.875-4.651-41.131-5.589-19.371-0.555-35.285-1.792-38.101-2.987-8.978-4.085-16.254-10.593-21.172-18.691l-0.119-0.21c-3.883-6.656-4.608-9.813-4.608-20.651 0-10.965 0.683-13.952 4.821-20.992 5.547-9.472 15.787-17.451 25.728-20.139 4.523-1.237 19.584-1.621 42.837-1.109 31.104 0.683 37.419 1.28 47.787 4.608 41.436 13.392 73.368 45.549 86.188 86.189l0.255 0.936 4.011 12.8v472.747l-4.011 12.8c-13.049 41.546-44.977 73.67-85.467 86.737l-0.933 0.26-13.696 4.309-359.253 0.256c-197.589 0.128-363.136-0.427-367.829-1.237zM498.347 360.149c-5.034-1.774-9.39-4.219-13.232-7.281l0.091 0.070c-3.029-2.645-54.656-63.872-114.731-136.064-89.387-107.392-109.781-132.821-112.085-139.733-7.211-21.717 4.523-45.653 26.197-53.376 5.205-1.877 47.104-2.304 226.688-2.347 247.637-0.085 230.315-0.981 244.011 12.715 12.8 12.8 16.341 35.029 7.893 49.408-1.835 3.115-52.907 65.067-113.408 137.685-83.541 100.267-111.787 133.035-117.205 136.064-8.96 5.035-23.68 6.272-34.219 2.859zM573.525 179.627l60.075-72.107-60.8-0.469c-33.451-0.213-88.149-0.213-121.6 0l-60.8 0.469 60.075 72.107c33.067 39.68 60.757 72.107 61.525 72.107s28.459-32.427 61.525-72.107z" />
<glyph unicode="&#xe904;" glyph-name="alert-circle" d="M481.28 916.352l-23.893-2.56c-56.060-6.424-107.139-22.066-153.664-45.44l2.624 1.194c-48.427-23.509-84.779-49.707-125.525-90.411-41.003-40.917-68.053-78.549-91.349-127.189-76.629-159.915-58.411-344.149 48.171-486.955 20.267-27.136 65.152-71.808 92.757-92.331 169.131-125.781 395.349-125.312 564.779 1.152 25.984 19.371 71.637 65.024 91.008 91.008 126.891 170.027 126.891 396.331 0 566.357-19.371 25.941-64.981 71.552-90.88 90.795-68.053 50.603-139.733 80-222.592 91.264-18.048 2.475-78.891 4.523-91.435 3.115zM568.32 827.691c109.355-16.512 204.971-78.080 266.24-171.477 12.928-19.755 31.701-57.984 39.765-81.067 14.763-42.368 20.693-78.72 20.693-127.147 0-63.701-10.965-111.829-38.272-168.107-30.080-62.037-75.477-113.792-134.528-153.259-33.664-22.528-87.509-45.056-128.811-53.973-24.244-5.414-52.089-8.515-80.658-8.515-91.486 0-175.543 31.805-241.717 84.962l0.754-0.586c-64.555 51.712-112.981 127.573-132.395 207.317-7.936 32.555-10.411 54.272-10.411 92.16 0 63.701 10.965 111.829 38.272 168.107 45.622 92.339 124.633 162.383 220.876 195.211l2.698 0.799c30.080 9.941 54.272 14.848 93.013 18.859 13.739 1.408 67.029-0.64 84.48-3.285zM498.987 658.901c-10.333-3.519-18.737-10.43-24.080-19.381l-0.112-0.203-4.608-7.851v-196.523l5.163-8.405c2.901-4.693 8.747-10.795 13.269-13.867 20.096-13.483 47.019-7.296 60.032 13.867l5.163 8.405v196.523l-4.608 7.851c-7.531 12.997-21.374 21.6-37.227 21.6-4.641 0-9.109-0.737-13.295-2.101l0.303 0.085zM498.987 317.653c-10.326-3.575-18.722-10.506-24.079-19.465l-0.113-0.204c-3.883-6.656-4.608-9.813-4.608-20.651 0-10.965 0.683-13.952 4.821-20.992 22.101-37.632 79.573-22.443 79.573 20.992 0.001 0.080 0.001 0.175 0.001 0.269 0 16.266-9.157 30.393-22.597 37.507l-0.23 0.111c-5.855 2.608-12.687 4.126-19.873 4.126-4.586 0-9.027-0.618-13.245-1.776l0.35 0.082z" />
<glyph unicode="&#xe905;" glyph-name="alert-octagon" d="M321.707 914.731c-2.001-0.817-4.545-1.663-7.148-2.363l-0.489-0.112c-45.752-44.884-88.776-87.584-131.555-130.529l-0.498-0.5c-104.917-104.789-131.968-132.693-135.253-139.52l-4.053-8.533v-185.173c0.043-182.016 0.085-185.301 3.456-192.853 2.688-5.931 33.109-37.376 133.547-137.941 74.325-74.411 132.992-131.84 136.875-133.973l6.827-3.712h188.587c180.053 0 188.843 0.128 194.56 3.157 8.235 4.352 265.515 261.333 270.208 269.909l3.712 6.827v188.587c0 180.053-0.128 188.843-3.157 194.56-4.352 8.235-261.333 265.515-269.909 270.208l-6.827 3.712-186.027 0.384c-158.891 0.299-187.008 0-192.853-2.133zM783.787 719.787l112.213-112.213v-319.147l-224.427-224.427h-319.147l-224.427 224.427v319.147l224.427 224.427h319.147l112.213-112.213zM498.987 658.901c-10.333-3.519-18.737-10.43-24.080-19.381l-0.112-0.203-4.608-7.851v-196.523l5.163-8.405c2.901-4.693 8.747-10.795 13.269-13.867 20.096-13.483 47.019-7.296 60.032 13.867l5.163 8.405v196.523l-4.608 7.851c-7.531 12.997-21.374 21.6-37.227 21.6-4.641 0-9.109-0.737-13.295-2.101l0.303 0.085zM498.987 317.653c-10.326-3.575-18.722-10.506-24.079-19.465l-0.113-0.204c-3.883-6.656-4.608-9.813-4.608-20.651 0-10.965 0.683-13.952 4.821-20.992 22.101-37.632 79.573-22.443 79.573 20.992 0.001 0.080 0.001 0.175 0.001 0.269 0 16.266-9.157 30.393-22.597 37.507l-0.23 0.111c-5.855 2.608-12.687 4.126-19.873 4.126-4.586 0-9.027-0.618-13.245-1.776l0.35 0.082z" />
<glyph unicode="&#xe906;" glyph-name="alert-triangle" d="M479.872 874.624c-27.093-7.125-57.387-27.947-72.107-49.621-11.477-16.896-366.933-610.987-372.096-621.909-7.476-15.712-11.842-34.142-11.842-53.592 0-34.512 13.746-65.814 36.061-88.729l-0.027 0.028c19.925-20.096 41.643-31.957 67.883-37.035 18.731-3.627 749.781-3.627 768.512 0 43.223 8.7 78.105 37.987 94.446 76.971l0.317 0.853c12.629 31.36 11.947 69.76-1.792 99.797-4.352 9.515-361.941 607.317-373.12 623.787-14.805 21.803-45.141 42.496-72.619 49.536-17.749 4.523-46.165 4.48-63.616-0.085zM529.664 789.291c4.053-1.92 9.728-5.973 12.629-8.96 5.931-6.229 366.848-608.128 370.176-617.344 5.163-14.379 0.896-32.213-10.453-43.563-13.909-13.909 21.163-12.757-389.888-12.757-246.997 0-368.256 0.597-372.565 1.792-21.248 5.888-35.499 32.939-28.288 53.675 3.371 9.557 364.032 611.456 370.432 618.197 7.885 7.749 18.707 12.533 30.645 12.533 6.258 0 12.21-1.315 17.593-3.683l-0.28 0.11zM498.987 616.235c-10.333-3.519-18.737-10.43-24.080-19.381l-0.112-0.203-4.608-7.851v-196.523l5.163-8.405c2.901-4.693 8.747-10.795 13.269-13.867 20.096-13.483 47.019-7.296 60.032 13.867l5.163 8.405v196.523l-4.608 7.851c-7.531 12.997-21.374 21.6-37.227 21.6-4.641 0-9.109-0.737-13.295-2.101l0.303 0.085zM498.987 274.987c-10.326-3.575-18.722-10.506-24.079-19.465l-0.113-0.204c-3.883-6.656-4.608-9.813-4.608-20.651 0-10.965 0.683-13.952 4.821-20.992 22.101-37.632 79.573-22.443 79.573 20.992 0.001 0.080 0.001 0.175 0.001 0.269 0 16.266-9.157 30.393-22.597 37.507l-0.23 0.111c-5.855 2.608-12.687 4.126-19.873 4.126-4.586 0-9.027-0.618-13.245-1.776l0.35 0.082z" />
<glyph unicode="&#xe907;" glyph-name="align-center" d="M114.987 744.235c-10.333-3.519-18.737-10.43-24.080-19.381l-0.112-0.203c-3.883-6.656-4.608-9.813-4.608-20.651 0-10.923 0.683-13.995 4.736-20.864 5.333-9.088 13.568-16 22.997-19.371 9.515-3.413 786.645-3.413 796.16 0 9.429 3.371 17.664 10.283 22.997 19.371 4.053 6.869 4.736 9.941 4.736 20.864 0 10.837-0.725 13.995-4.608 20.651-5.526 9.348-14.195 16.34-24.524 19.586l-0.308 0.084c-11.221 3.371-782.635 3.285-793.387-0.085zM242.987 573.568c-10.333-3.519-18.737-10.43-24.080-19.381l-0.112-0.203c-3.883-6.656-4.608-9.813-4.608-20.651 0-10.923 0.683-13.995 4.736-20.864 5.333-9.088 13.568-16 22.997-19.371 5.248-1.877 54.101-2.261 270.080-2.261s264.832 0.384 270.080 2.261c9.429 3.371 17.664 10.283 22.997 19.371 4.053 6.869 4.736 9.941 4.736 20.864 0 10.837-0.725 13.995-4.608 20.651-5.526 9.348-14.195 16.34-24.524 19.586l-0.308 0.084c-11.179 3.371-526.635 3.285-537.387-0.085zM114.987 402.901c-10.333-3.519-18.737-10.43-24.080-19.381l-0.112-0.203c-3.883-6.656-4.608-9.813-4.608-20.651 0-10.923 0.683-13.995 4.736-20.864 5.333-9.088 13.568-16 22.997-19.371 9.515-3.413 786.645-3.413 796.16 0 9.429 3.371 17.664 10.283 22.997 19.371 4.053 6.869 4.736 9.941 4.736 20.864 0 10.837-0.725 13.995-4.608 20.651-5.526 9.348-14.195 16.34-24.524 19.586l-0.308 0.084c-11.221 3.371-782.635 3.285-793.387-0.085zM242.987 232.235c-10.333-3.519-18.737-10.43-24.080-19.381l-0.112-0.203c-3.883-6.656-4.608-9.813-4.608-20.651 0-10.923 0.683-13.995 4.736-20.864 5.333-9.088 13.568-16 22.997-19.371 5.248-1.877 54.101-2.261 270.080-2.261s264.832 0.384 270.080 2.261c9.429 3.371 17.664 10.283 22.997 19.371 4.053 6.869 4.736 9.941 4.736 20.864 0 10.837-0.725 13.995-4.608 20.651-5.526 9.348-14.195 16.34-24.524 19.586l-0.308 0.084c-11.179 3.371-526.635 3.285-537.387-0.085z" />
<glyph unicode="&#xe908;" glyph-name="align-justify" d="M114.987 744.235c-10.333-3.519-18.737-10.43-24.080-19.381l-0.112-0.203c-3.883-6.656-4.608-9.813-4.608-20.651 0-10.923 0.683-13.995 4.736-20.864 5.333-9.088 13.568-16 22.997-19.371 9.515-3.413 786.645-3.413 796.16 0 9.429 3.371 17.664 10.283 22.997 19.371 4.053 6.869 4.736 9.941 4.736 20.864 0 10.837-0.725 13.995-4.608 20.651-5.526 9.348-14.195 16.34-24.524 19.586l-0.308 0.084c-11.221 3.371-782.635 3.285-793.387-0.085zM114.987 573.568c-10.333-3.519-18.737-10.43-24.080-19.381l-0.112-0.203c-3.883-6.656-4.608-9.813-4.608-20.651 0-10.923 0.683-13.995 4.736-20.864 5.333-9.088 13.568-16 22.997-19.371 9.515-3.413 786.645-3.413 796.16 0 9.429 3.371 17.664 10.283 22.997 19.371 4.053 6.869 4.736 9.941 4.736 20.864 0 10.837-0.725 13.995-4.608 20.651-5.526 9.348-14.195 16.34-24.524 19.586l-0.308 0.084c-11.221 3.371-782.635 3.285-793.387-0.085zM114.987 402.901c-10.333-3.519-18.737-10.43-24.080-19.381l-0.112-0.203c-3.883-6.656-4.608-9.813-4.608-20.651 0-10.923 0.683-13.995 4.736-20.864 5.333-9.088 13.568-16 22.997-19.371 9.515-3.413 786.645-3.413 796.16 0 9.429 3.371 17.664 10.283 22.997 19.371 4.053 6.869 4.736 9.941 4.736 20.864 0 10.837-0.725 13.995-4.608 20.651-5.526 9.348-14.195 16.34-24.524 19.586l-0.308 0.084c-11.221 3.371-782.635 3.285-793.387-0.085zM114.987 232.235c-10.333-3.519-18.737-10.43-24.080-19.381l-0.112-0.203c-3.883-6.656-4.608-9.813-4.608-20.651 0-10.923 0.683-13.995 4.736-20.864 5.333-9.088 13.568-16 22.997-19.371 9.515-3.413 786.645-3.413 796.16 0 9.429 3.371 17.664 10.283 22.997 19.371 4.053 6.869 4.736 9.941 4.736 20.864 0 10.837-0.725 13.995-4.608 20.651-5.526 9.348-14.195 16.34-24.524 19.586l-0.308 0.084c-11.221 3.371-782.635 3.285-793.387-0.085z" />
<glyph unicode="&#xe909;" glyph-name="align-left" d="M114.987 744.235c-10.333-3.519-18.737-10.43-24.080-19.381l-0.112-0.203c-3.883-6.656-4.608-9.813-4.608-20.651 0-10.923 0.683-13.995 4.736-20.864 5.333-9.088 13.568-16 22.997-19.371 9.515-3.413 786.645-3.413 796.16 0 9.429 3.371 17.664 10.283 22.997 19.371 4.053 6.869 4.736 9.941 4.736 20.864 0 10.837-0.725 13.995-4.608 20.651-5.526 9.348-14.195 16.34-24.524 19.586l-0.308 0.084c-11.221 3.371-782.635 3.285-793.387-0.085zM114.987 573.568c-10.333-3.519-18.737-10.43-24.080-19.381l-0.112-0.203c-3.883-6.656-4.608-9.813-4.608-20.651 0-10.923 0.683-13.995 4.736-20.864 5.333-9.088 13.568-16 22.997-19.371 9.515-3.371 615.979-3.371 625.493 0 9.429 3.371 17.664 10.283 22.997 19.371 4.053 6.869 4.736 9.941 4.736 20.864 0 10.837-0.725 13.995-4.608 20.651-5.526 9.348-14.195 16.34-24.524 19.586l-0.308 0.084c-11.221 3.371-611.968 3.285-622.72-0.085zM114.987 402.901c-10.333-3.519-18.737-10.43-24.080-19.381l-0.112-0.203c-3.883-6.656-4.608-9.813-4.608-20.651 0-10.923 0.683-13.995 4.736-20.864 5.333-9.088 13.568-16 22.997-19.371 9.515-3.413 786.645-3.413 796.16 0 9.429 3.371 17.664 10.283 22.997 19.371 4.053 6.869 4.736 9.941 4.736 20.864 0 10.837-0.725 13.995-4.608 20.651-5.526 9.348-14.195 16.34-24.524 19.586l-0.308 0.084c-11.221 3.371-782.635 3.285-793.387-0.085zM114.987 232.235c-10.333-3.519-18.737-10.43-24.080-19.381l-0.112-0.203c-3.883-6.656-4.608-9.813-4.608-20.651 0-10.923 0.683-13.995 4.736-20.864 5.333-9.088 13.568-16 22.997-19.371 9.515-3.371 615.979-3.371 625.493 0 9.429 3.371 17.664 10.283 22.997 19.371 4.053 6.869 4.736 9.941 4.736 20.864 0 10.837-0.725 13.995-4.608 20.651-5.526 9.348-14.195 16.34-24.524 19.586l-0.308 0.084c-11.221 3.371-611.968 3.285-622.72-0.085z" />
<glyph unicode="&#xe90a;" glyph-name="align-right" d="M114.987 744.235c-10.333-3.519-18.737-10.43-24.080-19.381l-0.112-0.203c-3.883-6.656-4.608-9.813-4.608-20.651 0-10.923 0.683-13.995 4.736-20.864 5.333-9.088 13.568-16 22.997-19.371 9.515-3.413 786.645-3.413 796.16 0 9.429 3.371 17.664 10.283 22.997 19.371 4.053 6.869 4.736 9.941 4.736 20.864 0 10.837-0.725 13.995-4.608 20.651-5.526 9.348-14.195 16.34-24.524 19.586l-0.308 0.084c-11.221 3.371-782.635 3.285-793.387-0.085zM285.653 573.568c-10.333-3.519-18.737-10.43-24.080-19.381l-0.112-0.203c-3.883-6.656-4.608-9.813-4.608-20.651 0-10.923 0.683-13.995 4.736-20.864 5.333-9.088 13.568-16 22.997-19.371 9.515-3.371 615.979-3.371 625.493 0 9.429 3.371 17.664 10.283 22.997 19.371 4.053 6.869 4.736 9.941 4.736 20.864 0 10.837-0.725 13.995-4.608 20.651-5.526 9.348-14.195 16.34-24.524 19.586l-0.308 0.084c-11.221 3.371-611.968 3.285-622.72-0.085zM114.987 402.901c-10.333-3.519-18.737-10.43-24.080-19.381l-0.112-0.203c-3.883-6.656-4.608-9.813-4.608-20.651 0-10.923 0.683-13.995 4.736-20.864 5.333-9.088 13.568-16 22.997-19.371 9.515-3.413 786.645-3.413 796.16 0 9.429 3.371 17.664 10.283 22.997 19.371 4.053 6.869 4.736 9.941 4.736 20.864 0 10.837-0.725 13.995-4.608 20.651-5.526 9.348-14.195 16.34-24.524 19.586l-0.308 0.084c-11.221 3.371-782.635 3.285-793.387-0.085zM285.653 232.235c-10.333-3.519-18.737-10.43-24.080-19.381l-0.112-0.203c-3.883-6.656-4.608-9.813-4.608-20.651 0-10.923 0.683-13.995 4.736-20.864 5.333-9.088 13.568-16 22.997-19.371 9.515-3.371 615.979-3.371 625.493 0 9.429 3.371 17.664 10.283 22.997 19.371 4.053 6.869 4.736 9.941 4.736 20.864 0 10.837-0.725 13.995-4.608 20.651-5.526 9.348-14.195 16.34-24.524 19.586l-0.308 0.084c-11.221 3.371-611.968 3.285-622.72-0.085z" />
<glyph unicode="&#xe90b;" glyph-name="anchor" d="M484.608 914.731c-69.419-10.837-125.483-64.981-139.733-135.083-16.341-80.128 28.715-162.304 104.832-191.317 7.509-2.859 15.019-5.632 16.64-6.144 2.816-0.896 2.987-14.72 2.987-258.432v-257.493l-10.667 1.408c-64.64 8.576-135.381 39.296-187.861 81.621-70.045 57.504-119.366 137.98-136.46 229.787l-0.372 2.405c-1.085 5.334-1.992 11.891-2.521 18.554l-0.039 0.604v4.693l44.8 0.085c48.171 0.085 52.437 0.683 63.531 9.173 3.285 2.475 8.064 8.149 10.667 12.544 4.053 6.869 4.736 9.941 4.736 20.864 0 10.837-0.725 13.995-4.608 20.651-5.526 9.348-14.195 16.34-24.524 19.586l-0.308 0.084c-11.264 3.413-141.483 3.413-152.747 0-10.637-3.329-19.306-10.321-24.721-19.468l-0.111-0.202c-4.523-7.723-4.608-8.277-4.395-36.011 0.768-91.691 34.688-188.245 94.080-267.819 19.371-25.984 65.024-71.637 91.008-91.008 60.322-45.673 133.455-77.676 213.084-90.026l2.681-0.342c34.517-5.376 100.309-5.376 134.827 0 82.311 12.692 155.443 44.695 216.965 91.238l-1.2-0.87c25.984 19.371 71.637 65.024 91.008 91.008 59.392 79.573 93.312 176.128 94.080 267.819 0.213 27.733 0.128 28.288-4.395 36.011-5.526 9.348-14.195 16.34-24.524 19.586l-0.308 0.084c-11.264 3.413-141.483 3.413-152.747 0-10.637-3.329-19.306-10.321-24.721-19.468l-0.111-0.202c-3.883-6.656-4.608-9.813-4.608-20.651 0-10.923 0.683-13.995 4.736-20.864 2.603-4.395 7.381-10.069 10.667-12.544 11.093-8.491 15.36-9.088 63.531-9.173l44.8-0.085v-4.693c0-14.208-10.496-58.539-19.883-84.053-29.792-79.265-82.22-144.316-149.36-189.018l-1.424-0.892c-43.947-29.099-105.259-52.181-156.587-59.008l-10.667-1.408v257.493c0 243.712 0.171 257.536 2.987 258.432 54.272 17.28 92.459 51.584 112.384 100.992 7.818 18.775 12.358 40.585 12.358 63.455 0 22.831-4.525 44.604-12.726 64.473l0.411-1.124c-22.511 55.302-71.795 95.49-131.313 104.752l-0.954 0.122c-7.884 1.385-16.962 2.177-26.225 2.177-9.532 0-18.868-0.838-27.939-2.446l0.959 0.141zM534.315 828.885c36.434-10.454 62.645-43.475 62.645-82.618 0-13.507-3.121-26.286-8.682-37.654l0.224 0.507c-6.613-13.568-24.149-31.787-36.821-38.187-11.608-6.001-25.337-9.52-39.888-9.52-7.377 0-14.542 0.904-21.392 2.608l0.608-0.128c-29.227 7.595-53.717 31.829-61.227 60.459-1.84 6.615-2.898 14.212-2.898 22.055 0 47.152 38.224 85.376 85.376 85.376 7.844 0 15.44-1.058 22.655-3.038l-0.599 0.14z" />
<glyph unicode="&#xe90c;" glyph-name="aperture" horiz-adv-x="1109" d="M510.293 915.541c-129.749-11.477-244.309-65.152-332.245-155.733-33.739-34.192-61.862-74.034-82.802-117.959l-1.123-2.617c-17.853-35.375-31.45-76.419-38.649-119.626l-0.348-2.529c-3.499-20.309-4.096-30.72-4.096-69.205 0-47.531 2.603-71.211 11.819-107.136 32.555-126.635 120.747-236.288 242.219-301.056 50.603-27.008 109.781-46.123 173.781-56.149 23.040-3.627 33.749-4.224 75.819-4.181 41.344 0.043 53.205 0.725 75.819 4.181 83.243 12.843 153.387 39.637 219.008 83.584 57.259 38.357 107.819 90.24 142.592 146.304 21.931 35.413 44.288 87.637 54.4 127.189 9.259 36.267 11.819 59.733 11.819 107.264 0 38.485-0.597 48.896-4.096 69.205-11.179 65.994-35.078 124.835-69.189 176.321l1.050-1.686c-33.408 51.413-84.267 102.144-137.941 137.728-63.872 42.283-129.109 67.669-207.189 80.597-27.648 4.565-40.747 5.717-72.491 6.4-5.34 0.141-11.627 0.222-17.932 0.222-14.15 0-28.205-0.406-42.154-1.207l1.931 0.089zM528.768 829.568c0-0.555-27.691-45.269-61.525-99.371l-93.653-149.76c-17.664-28.288-32.725-50.731-33.451-49.92-2.944 3.2-103.467 165.205-103.467 166.741 0 2.645 30.677 30.933 48.555 44.757 46.165 35.669 103.595 62.763 164.053 77.355 31.744 7.68 79.488 13.824 79.488 10.197zM666.368 817.749c73.472-18.773 137.131-53.461 190.592-103.893 15.744-14.891 45.312-48.683 45.312-51.84 0-0.853-84.48-1.493-187.691-1.451-117.291 0.043-187.648 0.725-187.648 1.835 0 0.981 22.613 37.973 50.261 82.176 46.72 74.837 50.603 80.469 55.424 80.469 2.816 0 18.005-3.285 33.749-7.296zM273.621 475.349c50.347-80.512 92.587-148.309 93.909-150.699l2.389-4.395-211.669 0.939-5.973 18.603c-10.658 32.297-16.806 69.473-16.806 108.085 0 39.298 6.368 77.108 18.128 112.455l-0.725-2.513c6.272 19.499 25.813 63.829 28.117 63.829 0.64 0 42.325-65.835 92.629-146.304zM678.229 511.189l39.595-63.317-79.147-126.677h-168.021l-79.147 126.677 32.043 51.285c17.579 28.245 35.584 56.917 39.936 63.829l7.979 12.501 167.211-0.981 39.552-63.317zM957.056 555.904c10.68-32.221 16.841-69.312 16.841-107.843 0-40.075-6.665-78.594-18.946-114.508l0.74 2.489c-7.040-21.205-25.088-61.995-27.392-61.995-0.939 0-180.309 285.653-186.496 297.045l-2.389 4.352 211.669-0.939 5.973-18.603zM821.632 281.941c28.075-45.013 51.029-82.603 51.029-83.499 0-2.987-33.664-33.536-52.949-48-40.183-30.361-87.293-54.164-138.311-68.688l-3.001-0.731c-40.491-11.52-99.84-19.968-97.451-13.867 0.555 1.408 28.416 46.293 61.867 99.669-207.276-352.524-176.579-304.114-145.923-255.675l238.894 404.155c17.621 28.245 32.683 50.731 33.408 49.92 0.768-0.811 24.363-38.315 52.437-83.285zM582.4 232.448c0-1.109-97.835-158.165-100.096-160.725-3.755-4.181-60.843 10.197-94.976 23.893-72.201 29.108-132.364 75.227-177.5 133.562l-0.719 0.966c-2.347 3.072 6.741 3.243 185.387 3.243 103.339 0 187.904-0.427 187.904-0.939z" />
<glyph unicode="&#xe90d;" glyph-name="apartment" d="M148.352 871.552c-29.355-7.68-55.211-34.731-61.269-64.171-1.237-5.931-1.664-127.147-1.365-382.421l0.469-373.76 4.736-8.064c5.333-9.088 13.568-16 22.997-19.371 9.515-3.413 786.645-3.413 796.16 0 9.429 3.371 17.664 10.283 22.997 19.371l4.736 8.064 0.469 273.92c0.299 192.555-0.128 276.608-1.408 282.923-4.565 22.059-22.443 45.867-42.453 56.491-5.248 2.773-50.219 18.219-99.968 34.304-404.468 117.096-438.089 128.23-471.694 139.397l370.574-106.714-10.667 3.499-0.043 31.829c0 34.645-1.877 46.976-9.301 61.611-5.76 11.392-20.651 27.051-32.597 34.219-20.651 12.459-6.4 11.776-256.725 11.776-206.635 0-225.323-0.213-235.648-2.901zM597.333 448v-341.333h-85.248l-0.939 226.133-4.608 7.851c-5.526 9.348-14.195 16.34-24.524 19.586l-0.308 0.084c-11.392 3.413-184.021 3.413-195.413 0-10.637-3.329-19.306-10.321-24.721-19.468l-0.111-0.202-4.608-7.851-0.939-226.133h-85.248v682.667h426.667v-341.333zM285.653 701.568c-10.333-3.519-18.737-10.43-24.080-19.381l-0.112-0.203c-3.883-6.656-4.608-9.813-4.608-20.651 0-10.923 0.683-13.995 4.736-20.864 5.333-9.088 13.568-16 22.997-19.371 9.344-3.328 189.483-3.328 198.827 0 9.429 3.371 17.664 10.283 22.997 19.371 4.053 6.869 4.736 9.941 4.736 20.864 0 10.837-0.725 13.995-4.608 20.651-5.526 9.348-14.195 16.34-24.524 19.586l-0.308 0.084c-10.965 3.285-185.472 3.243-196.053-0.085zM769.707 617.259l82.773-26.88 0.427-241.877 0.427-241.835h-170.667v268.8c0 213.931 0.427 268.8 2.133 268.757 1.195-0.043 39.381-12.16 84.907-26.965zM285.653 530.901c-10.333-3.519-18.737-10.43-24.080-19.381l-0.112-0.203c-3.883-6.656-4.608-9.813-4.608-20.651 0-10.923 0.683-13.995 4.736-20.864 5.333-9.088 13.568-16 22.997-19.371 9.344-3.328 189.483-3.328 198.827 0 9.429 3.371 17.664 10.283 22.997 19.371 4.053 6.869 4.736 9.941 4.736 20.864 0 10.837-0.725 13.995-4.608 20.651-5.526 9.348-14.195 16.34-24.524 19.586l-0.308 0.084c-10.965 3.285-185.472 3.243-196.053-0.085zM426.667 192v-85.333h-85.333v170.667h85.333v-85.333z" />
<glyph unicode="&#xe90e;" glyph-name="archive" d="M29.653 872.235c-10.333-3.519-18.737-10.43-24.080-19.381l-0.112-0.203-4.608-7.851-0.469-115.712c-0.299-75.093 0.128-117.973 1.28-122.197 2.56-9.472 10.709-19.755 20.011-25.216 7.936-4.651 9.088-4.821 35.925-5.376l27.691-0.597 0.469-262.229 0.427-262.272 4.736-8.064c5.333-9.088 13.568-16 22.997-19.371 9.515-3.413 786.645-3.413 796.16 0 9.429 3.371 17.664 10.283 22.997 19.371l4.736 8.064 0.427 262.272 0.469 262.229 27.691 0.597c26.837 0.555 27.989 0.725 35.925 5.376 9.301 5.461 17.451 15.744 20.011 25.216 1.152 4.224 1.579 47.104 1.28 122.197l-0.469 115.712-4.608 7.851c-5.526 9.348-14.195 16.34-24.524 19.586l-0.308 0.084c-11.221 3.371-953.259 3.285-964.053-0.085zM938.667 725.333v-64h-853.333v128h853.333v-64zM853.333 341.333v-234.667h-682.667v469.333h682.667v-234.667zM413.653 488.235c-10.333-3.519-18.737-10.43-24.080-19.381l-0.112-0.203c-3.883-6.656-4.608-9.813-4.608-20.651 0-10.923 0.683-13.995 4.736-20.864 5.333-9.088 13.568-16 22.997-19.371 9.344-3.328 189.483-3.328 198.827 0 9.429 3.371 17.664 10.283 22.997 19.371 4.053 6.869 4.736 9.941 4.736 20.864 0 10.837-0.725 13.995-4.608 20.651-5.526 9.348-14.195 16.34-24.524 19.586l-0.308 0.084c-10.965 3.285-185.472 3.243-196.053-0.085z" />
<glyph unicode="&#xe90f;" glyph-name="arrow-down" horiz-adv-x="1109" d="M545.92 787.883c-12.747-2.826-23.154-11.062-28.859-22.119l-0.112-0.238-4.821-9.643v-253.995c0-139.733-0.683-253.739-1.493-253.397-53.127 48.133-94.656 86.338-135.95 124.792l8.377-7.715c-89.088 82.304-128.64 117.717-134.827 120.619-16.555 7.765-33.493 4.565-47.019-8.96-13.227-13.141-16.213-31.232-8.021-48.512 2.475-5.163 49.835-50.005 170.283-161.195 91.776-84.736 169.643-155.563 173.013-157.397 8.192-4.395 27.904-4.309 36.395 0.128 3.371 1.792 81.28 72.576 173.056 157.355 119.168 110.080 167.851 156.16 170.24 161.195 2.83 5.499 4.488 11.999 4.488 18.887 0 16.945-10.039 31.546-24.494 38.178l-0.261 0.108c-5.126 2.659-11.192 4.219-17.621 4.219-6.262 0-12.178-1.479-17.419-4.107l0.224 0.102c-6.187-2.901-45.739-38.315-134.827-120.619-32.9-30.723-74.429-68.928-116.189-106.882l-11.384-10.195c-0.811-0.341-1.493 113.664-1.493 253.397v253.995l-4.821 9.643c-7.042 13.921-21.237 23.298-37.623 23.298-3.132 0-6.184-0.343-9.12-0.992l0.279 0.052z" />
<glyph unicode="&#xe910;" glyph-name="arrow-down-circle" d="M481.28 916.352l-23.893-2.56c-56.060-6.424-107.139-22.066-153.664-45.44l2.624 1.194c-48.427-23.509-84.779-49.707-125.525-90.411-41.003-40.917-68.053-78.549-91.349-127.189-76.629-159.915-58.411-344.149 48.171-486.955 20.267-27.136 65.152-71.808 92.757-92.331 169.131-125.781 395.349-125.312 564.779 1.152 25.984 19.371 71.637 65.024 91.008 91.008 126.891 170.027 126.891 396.331 0 566.357-19.371 25.941-64.981 71.552-90.88 90.795-68.053 50.603-139.733 80-222.592 91.264-18.048 2.475-78.891 4.523-91.435 3.115zM568.32 827.691c109.355-16.512 204.971-78.080 266.24-171.477 12.928-19.755 31.701-57.984 39.765-81.067 14.763-42.368 20.693-78.72 20.693-127.147 0-63.701-10.965-111.829-38.272-168.107-30.080-62.037-75.477-113.792-134.528-153.259-33.664-22.528-87.509-45.056-128.811-53.973-24.244-5.414-52.089-8.515-80.658-8.515-91.486 0-175.543 31.805-241.717 84.962l0.754-0.586c-64.555 51.712-112.981 127.573-132.395 207.317-7.936 32.555-10.411 54.272-10.411 92.16 0 63.701 10.965 111.829 38.272 168.107 45.622 92.339 124.633 162.383 220.876 195.211l2.698 0.799c30.080 9.941 54.272 14.848 93.013 18.859 13.739 1.408 67.029-0.64 84.48-3.285zM498.987 658.901c-10.333-3.519-18.737-10.43-24.080-19.381l-0.112-0.203-4.608-7.851-0.939-250.624-52.437 52.181c-49.451 49.152-52.949 52.309-61.696 54.912-11.349 3.328-16.085 3.413-26.155 0.384-10.637-3.329-19.306-10.321-24.721-19.468l-0.111-0.202c-3.925-6.656-4.608-9.771-4.565-20.651 0-9.045 0.939-14.549 3.157-18.773 1.707-3.285 43.563-46.549 92.971-96.171 97.835-98.219 98.005-98.347 116.309-98.347s18.475 0.128 116.309 98.347c49.408 49.621 91.264 92.885 92.971 96.171 2.219 4.224 3.157 9.728 3.157 18.773 0.043 10.88-0.64 13.995-4.565 20.651-5.526 9.348-14.195 16.34-24.524 19.586l-0.308 0.084c-10.069 3.029-14.805 2.944-26.155-0.384-8.747-2.603-12.245-5.76-61.696-54.912l-52.437-52.181-0.939 250.624-4.608 7.851c-7.531 12.997-21.374 21.6-37.227 21.6-4.641 0-9.109-0.737-13.295-2.101l0.303 0.085z" />
<glyph unicode="&#xe911;" glyph-name="arrow-down-left" d="M285.653 701.568c-10.333-3.519-18.737-10.43-24.080-19.381l-0.112-0.203-4.608-7.851-0.469-223.573c-0.427-204.331-0.213-224.213 2.347-230.997 3.883-10.283 11.904-18.859 22.016-23.552l8.533-3.968 221.867 0.043c180.907 0.043 223.061 0.469 228.267 2.347 9.429 3.371 17.664 10.283 22.997 19.371 4.053 6.869 4.736 9.941 4.736 20.864 0 10.837-0.725 13.995-4.608 20.651-3.006 4.864-6.602 9.016-10.76 12.523l-0.077 0.063c-12.715 9.685-7.808 9.429-185.771 9.429h-163.968l179.413 179.627c98.688 98.816 180.864 182.315 182.571 185.6 2.219 4.224 3.157 9.728 3.157 18.773 0.043 10.88-0.64 13.995-4.565 20.651-5.526 9.348-14.195 16.34-24.524 19.586l-0.308 0.084c-10.027 3.029-14.805 2.944-26.155-0.341-9.045-2.645-13.781-7.211-189.696-182.997l-180.437-180.267-0.469 168.021-0.469 168.064-4.608 7.851c-7.531 12.997-21.374 21.6-37.227 21.6-4.641 0-9.109-0.737-13.295-2.101l0.303 0.085z" />
<glyph unicode="&#xe912;" glyph-name="arrow-down-right" d="M285.653 701.568c-10.333-3.519-18.737-10.43-24.080-19.381l-0.112-0.203c-3.925-6.656-4.608-9.771-4.565-20.651 0-9.045 0.939-14.549 3.157-18.773 1.707-3.285 83.883-86.784 182.571-185.6l179.413-179.627h-163.968c-177.963 0-173.056 0.256-185.771-9.429-3.413-2.603-8.32-8.277-10.837-12.587-3.883-6.656-4.608-9.813-4.608-20.651 0-10.923 0.683-13.995 4.736-20.864 5.333-9.088 13.568-16 22.997-19.371 5.205-1.877 47.36-2.304 228.267-2.347l221.867-0.043 8.533 3.968c10.112 4.693 18.133 13.269 22.016 23.552 2.56 6.784 2.773 26.667 2.347 230.997l-0.469 223.573-4.651 7.936c-7.625 12.82-21.406 21.277-37.163 21.277s-29.538-8.457-37.054-21.079l-0.109-0.198-4.651-7.936-0.469-168.064-0.469-168.021-180.437 180.267c-175.915 175.787-180.651 180.352-189.696 182.997-10.965 3.2-17.237 3.243-26.795 0.256z" />
<glyph unicode="&#xe913;" glyph-name="arrow-left" d="M496.64 786.432c-6.656-2.261-28.373-23.253-162.731-157.312-168.32-167.893-163.2-162.219-163.2-181.12s-5.035-13.312 162.347-180.309c84.821-84.608 156.8-155.136 159.957-156.715 19.413-9.771 44.629-1.92 55.979 17.365 4.139 7.040 4.821 9.984 4.779 20.992 0 9.045-0.939 14.549-3.157 18.773-1.707 3.285-55.083 57.984-118.571 121.6l-115.413 115.627 250.837 0.085c205.141 0.043 252.032 0.469 257.28 2.347 9.429 3.371 17.664 10.283 22.997 19.371 4.053 6.869 4.736 9.941 4.736 20.864 0 10.837-0.725 13.995-4.608 20.651-5.526 9.348-14.195 16.34-24.524 19.586l-0.308 0.084c-6.443 1.963-50.816 2.347-257.109 2.347h-249.301l115.413 115.627c63.488 63.573 116.864 118.315 118.571 121.6 2.219 4.224 3.157 9.728 3.157 18.773 0.043 10.88-0.64 13.995-4.565 20.651-7.621 13.107-21.599 21.779-37.602 21.779-5.372 0-10.515-0.977-15.262-2.763l0.299 0.099z" />
<glyph unicode="&#xe914;" glyph-name="arrow-left-circle" d="M481.28 916.352l-23.893-2.56c-56.060-6.424-107.139-22.066-153.664-45.44l2.624 1.194c-48.427-23.509-84.779-49.707-125.525-90.411-41.003-40.917-68.053-78.549-91.349-127.189-76.629-159.915-58.411-344.149 48.171-486.955 20.267-27.136 65.152-71.808 92.757-92.331 169.131-125.781 395.349-125.312 564.779 1.152 25.984 19.371 71.637 65.024 91.008 91.008 126.891 170.027 126.891 396.331 0 566.357-19.371 25.941-64.981 71.552-90.88 90.795-68.053 50.603-139.733 80-222.592 91.264-18.048 2.475-78.891 4.523-91.435 3.115zM568.32 827.691c109.355-16.512 204.971-78.080 266.24-171.477 12.928-19.755 31.701-57.984 39.765-81.067 14.763-42.368 20.693-78.72 20.693-127.147 0-63.701-10.965-111.829-38.272-168.107-30.080-62.037-75.477-113.792-134.528-153.259-33.664-22.528-87.509-45.056-128.811-53.973-24.244-5.414-52.089-8.515-80.658-8.515-91.486 0-175.543 31.805-241.717 84.962l0.754-0.586c-64.555 51.712-112.981 127.573-132.395 207.317-7.936 32.555-10.411 54.272-10.411 92.16 0 63.701 10.965 111.829 38.272 168.107 45.622 92.339 124.633 162.383 220.876 195.211l2.698 0.799c30.080 9.941 54.272 14.848 93.013 18.859 13.739 1.408 67.029-0.64 84.48-3.285zM496.64 658.432c-6.571-2.261-20.992-15.915-98.731-93.312-99.2-98.731-99.2-98.731-99.2-117.12 0-18.304 0.128-18.475 98.347-116.309 49.621-49.408 92.885-91.264 96.171-92.971 4.224-2.219 9.728-3.157 18.773-3.157 11.008-0.043 13.952 0.64 20.992 4.779 9.472 5.547 17.451 15.744 20.181 25.728 0.72 3.2 1.132 6.876 1.132 10.647 0 7.077-1.452 13.816-4.074 19.933l0.126-0.33c-1.579 3.157-26.027 28.971-54.315 57.387l-51.371 51.627 122.837 0.085c98.133 0.043 124.117 0.512 129.237 2.347 9.429 3.371 17.664 10.283 22.997 19.371 4.053 6.869 4.736 9.941 4.736 20.864 0 10.837-0.725 13.995-4.608 20.651-3.006 4.864-6.602 9.016-10.76 12.523l-0.077 0.063c-12.459 9.515-11.477 9.429-143.061 9.429h-121.301l51.371 51.627c28.288 28.373 52.821 54.315 54.571 57.6 2.219 4.224 3.157 9.685 3.157 18.773 0.043 10.88-0.64 13.995-4.565 20.651-7.621 13.107-21.599 21.779-37.602 21.779-5.372 0-10.515-0.977-15.262-2.763l0.299 0.099z" />
<glyph unicode="&#xe915;" glyph-name="arrow-right" horiz-adv-x="1109" d="M545.92 787.84c-25.387-4.693-41.045-34.645-30.293-58.027 4.267-9.301 9.088-13.952 143.104-137.515l110.507-101.931h-546.688l-10.027-5.077c-30.464-15.445-32.171-54.784-3.285-73.899l7.723-5.12 552.235-0.981-110.507-101.888c-133.931-123.52-138.795-128.171-143.061-137.515-10.837-23.595 4.309-52.48 30.677-58.368 15.104-3.371 26.88 0.853 42.795 15.488 6.997 6.4 83.115 76.629 169.131 156.075 169.045 156.032 162.517 149.291 162.517 168.789 0 19.328 5.333 13.739-148.608 155.989 149.301-136.018 94.528-85.335 39.737-34.672l-208.1 190.107c-30.891 28.416-38.443 32.128-57.856 28.544z" />
<glyph unicode="&#xe916;" glyph-name="arrow-right-circle" d="M481.28 916.352l-23.893-2.56c-56.060-6.424-107.139-22.066-153.664-45.44l2.624 1.194c-48.427-23.509-84.779-49.707-125.525-90.411-41.003-40.917-68.053-78.549-91.349-127.189-76.629-159.915-58.411-344.149 48.171-486.955 20.267-27.136 65.152-71.808 92.757-92.331 169.131-125.781 395.349-125.312 564.779 1.152 25.984 19.371 71.637 65.024 91.008 91.008 126.891 170.027 126.891 396.331 0 566.357-19.371 25.941-64.981 71.552-90.88 90.795-68.053 50.603-139.733 80-222.592 91.264-18.048 2.475-78.891 4.523-91.435 3.115zM568.32 827.691c109.355-16.512 204.971-78.080 266.24-171.477 12.928-19.755 31.701-57.984 39.765-81.067 14.763-42.368 20.693-78.72 20.693-127.147 0-63.701-10.965-111.829-38.272-168.107-30.080-62.037-75.477-113.792-134.528-153.259-33.664-22.528-87.509-45.056-128.811-53.973-24.244-5.414-52.089-8.515-80.658-8.515-91.486 0-175.543 31.805-241.717 84.962l0.754-0.586c-64.555 51.712-112.981 127.573-132.395 207.317-7.936 32.555-10.411 54.272-10.411 92.16 0 63.701 10.965 111.829 38.272 168.107 45.622 92.339 124.633 162.383 220.876 195.211l2.698 0.799c30.080 9.941 54.272 14.848 93.013 18.859 13.739 1.408 67.029-0.64 84.48-3.285zM497.92 658.731c-9.472-3.456-17.92-10.581-23.125-19.413-3.925-6.656-4.608-9.771-4.565-20.651 0-9.088 0.939-14.549 3.157-18.773 1.749-3.285 26.283-29.227 54.571-57.6l51.371-51.627h-121.301c-131.584 0-130.603 0.085-143.061-9.429-3.413-2.603-8.32-8.277-10.837-12.587-3.883-6.656-4.608-9.813-4.608-20.651 0-10.923 0.683-13.995 4.736-20.864 5.333-9.088 13.568-16 22.997-19.371 5.12-1.835 31.104-2.304 129.237-2.347l122.837-0.085-51.371-51.627c-28.288-28.416-52.736-54.229-54.315-57.387-9.771-19.371-1.92-44.629 17.365-55.979 7.040-4.139 9.984-4.821 20.992-4.779 9.045 0 14.549 0.939 18.773 3.157 3.285 1.707 46.549 43.563 96.171 92.971 98.219 97.835 98.347 98.005 98.347 116.309 0 18.389 0 18.389-99.2 117.12-82.091 81.707-91.861 90.923-99.456 93.44-4.345 1.606-9.364 2.535-14.6 2.535-5.055 0-9.908-0.866-14.418-2.458l0.303 0.093z" />
<glyph unicode="&#xe917;" glyph-name="arrow-up" d="M494.080 785.237c-6.869-3.285-38.699-34.304-162.389-158.293-84.608-84.821-155.136-156.8-156.715-159.957-9.771-19.413-1.92-44.629 17.365-55.979 7.040-4.139 9.984-4.821 20.992-4.779 9.045 0 14.549 0.939 18.773 3.157 3.285 1.707 57.984 55.040 121.557 118.528l115.627 115.413 0.427-253.525 0.469-253.525 5.163-8.405c7.549-12.6 21.13-20.904 36.651-20.904s29.102 8.304 36.543 20.711l0.107 0.193 5.163 8.405 0.469 253.525 0.427 253.525 115.627-115.413c63.573-63.488 118.272-116.821 121.557-118.528 4.224-2.219 9.728-3.157 18.773-3.157 11.008-0.043 13.952 0.64 20.992 4.779 9.472 5.547 17.451 15.744 20.181 25.728 2.304 8.619 1.024 22.613-2.816 30.251-1.579 3.157-72.107 75.136-156.715 159.957-123.691 123.989-155.52 155.008-162.389 158.293-5.238 2.584-11.402 4.095-17.92 4.095s-12.682-1.511-18.163-4.203l0.243 0.108z" />
<glyph unicode="&#xe918;" glyph-name="arrow-up-circle" d="M481.28 916.352l-23.893-2.56c-56.060-6.424-107.139-22.066-153.664-45.44l2.624 1.194c-48.427-23.509-84.779-49.707-125.525-90.411-41.003-40.917-68.053-78.549-91.349-127.189-76.629-159.915-58.411-344.149 48.171-486.955 20.267-27.136 65.152-71.808 92.757-92.331 169.131-125.781 395.349-125.312 564.779 1.152 25.984 19.371 71.637 65.024 91.008 91.008 126.891 170.027 126.891 396.331 0 566.357-19.371 25.941-64.981 71.552-90.88 90.795-68.053 50.603-139.733 80-222.592 91.264-18.048 2.475-78.891 4.523-91.435 3.115zM568.32 827.691c109.355-16.512 204.971-78.080 266.24-171.477 12.928-19.755 31.701-57.984 39.765-81.067 14.763-42.368 20.693-78.72 20.693-127.147 0-63.701-10.965-111.829-38.272-168.107-30.080-62.037-75.477-113.792-134.528-153.259-33.664-22.528-87.509-45.056-128.811-53.973-24.244-5.414-52.089-8.515-80.658-8.515-91.486 0-175.543 31.805-241.717 84.962l0.754-0.586c-64.555 51.712-112.981 127.573-132.395 207.317-7.936 32.555-10.411 54.272-10.411 92.16 0 63.701 10.965 111.829 38.272 168.107 45.622 92.339 124.633 162.383 220.876 195.211l2.698 0.799c30.080 9.941 54.272 14.848 93.013 18.859 13.739 1.408 67.029-0.64 84.48-3.285zM494.080 657.237c-6.741-3.243-27.307-22.955-98.389-94.293-49.408-49.621-91.136-92.8-92.715-95.957-9.771-19.413-1.92-44.629 17.365-55.979 7.040-4.139 9.984-4.821 20.992-4.779 9.088 0 14.549 0.939 18.773 3.157 3.285 1.749 29.184 26.24 57.557 54.485l51.584 51.371 0.939-250.965 5.163-8.405c7.549-12.6 21.13-20.904 36.651-20.904s29.102 8.304 36.543 20.711l0.107 0.193 5.163 8.405 0.939 250.965 51.584-51.371c28.373-28.245 54.272-52.736 57.557-54.485 4.224-2.219 9.685-3.157 18.773-3.157 11.008-0.043 13.952 0.64 20.992 4.779 9.472 5.547 17.451 15.744 20.181 25.728 0.72 3.2 1.132 6.876 1.132 10.647 0 7.077-1.452 13.816-4.074 19.933l0.126-0.33c-1.579 3.157-43.307 46.336-92.715 95.957-97.835 98.219-98.005 98.347-116.309 98.347-0.089 0.001-0.194 0.001-0.299 0.001-6.412 0-12.474-1.497-17.857-4.16l0.236 0.105z" />
<glyph unicode="&#xe919;" glyph-name="arrow-up-left" d="M280.747 699.989c-10.112-4.693-18.133-13.269-22.016-23.552-2.56-6.784-2.773-26.709-2.347-231.125l0.469-223.701 5.163-8.405c7.549-12.6 21.13-20.904 36.651-20.904s29.102 8.304 36.543 20.711l0.107 0.193 5.163 8.405 0.939 336.384 179.584-179.413c98.773-98.688 182.272-180.821 185.557-182.528 4.224-2.219 9.728-3.157 18.773-3.157 11.008-0.043 13.952 0.64 20.992 4.779 9.472 5.547 17.451 15.744 20.181 25.728 2.304 8.619 1.024 22.613-2.816 30.251-1.579 3.157-83.627 86.571-182.315 185.387l-179.413 179.627 165.504 0.085c133.845 0.043 166.784 0.512 171.947 2.347 9.429 3.371 17.664 10.283 22.997 19.371 4.053 6.869 4.736 9.941 4.736 20.864 0 10.837-0.725 13.995-4.608 20.651-5.526 9.348-14.195 16.34-24.524 19.586l-0.308 0.084c-6.443 1.92-46.336 2.347-228.096 2.347l-220.331-0.043-8.533-3.968z" />
<glyph unicode="&#xe91a;" glyph-name="arrow-up-right" d="M285.653 701.568c-10.333-3.519-18.737-10.43-24.080-19.381l-0.112-0.203c-3.883-6.656-4.608-9.813-4.608-20.651 0-10.923 0.683-13.995 4.736-20.864 5.333-9.088 13.568-16 22.997-19.371 5.163-1.835 38.101-2.304 171.947-2.347l165.504-0.085-179.413-179.627c-98.688-98.773-180.864-182.315-182.571-185.6-2.219-4.224-3.157-9.728-3.157-18.773-0.043-11.008 0.64-13.952 4.779-20.992 5.547-9.472 15.744-17.451 25.728-20.181 8.619-2.304 22.613-1.024 30.251 2.816 3.157 1.579 86.571 83.584 185.344 182.272l179.584 179.413 0.939-336.384 5.163-8.405c7.549-12.6 21.13-20.904 36.651-20.904s29.102 8.304 36.543 20.711l0.107 0.193 5.163 8.405 0.469 223.701c0.427 204.416 0.213 224.341-2.347 231.125-4.11 10.489-11.905 18.782-21.755 23.441l-0.261 0.111-8.533 3.968-221.013-0.085c-175.744-0.085-222.464-0.555-228.053-2.304z" />
<glyph unicode="&#xe91b;" glyph-name="atom" d="M494.933 873.6c-12.373-2.432-30.251-8.021-38.059-11.989-36.907-18.645-70.229-55.339-94.891-104.363l-7.040-13.995-14.933 1.28c-22.741 1.963-67.968 1.323-82.304-1.152-66.005-11.477-109.355-46.165-124.885-99.968-3.456-11.819-3.968-17.237-3.797-40.107 0.128-22.741 0.768-28.8 4.565-43.051 8.704-32.64 24.832-66.816 46.592-98.773l8.832-12.971-12.672-19.456c-33.621-51.669-49.92-101.376-47.744-145.749 1.109-22.827 4.096-34.56 13.952-54.613 19.669-39.979 57.771-65.195 113.707-75.221 17.664-3.157 57.472-4.096 82.901-1.963l15.744 1.365 7.040-14.080c29.781-59.136 69.931-98.133 115.968-112.597 18.261-5.76 49.792-5.76 68.224-0.043 18.198 6.121 33.986 14.58 48.031 25.219l-0.415-0.301c23.339 17.963 51.072 53.461 67.797 86.741 6.827 13.611 8.064 15.147 11.392 14.165 7.509-2.261 65.323-3.115 81.493-1.195 60.757 7.168 105.813 34.688 126.805 77.483 10.069 20.48 13.056 32.085 14.208 55.040 2.176 43.221-15.275 95.659-48.683 146.304l-12.075 18.261 10.88 16.299c19.158 27.899 34.442 60.298 44.089 95.042l0.54 2.28c4.267 16.384 4.864 21.931 4.864 43.52 0.043 29.056-2.133 38.955-13.739 62.549-19.371 39.509-57.941 65.28-112.171 75.051-17.365 3.115-58.795 4.011-84.309 1.877l-15.744-1.365-7.595 15.147c-28.715 57.173-71.979 98.901-115.413 111.275-12.459 3.541-41.771 5.888-51.157 4.053zM530.176 784.299c13.781-6.144 35.2-29.44 48.896-53.291l4.608-7.979-11.52-3.712c-18.638-6.307-30.504-10.788-42.255-15.496l6.415 2.269-24.32-9.429-24.32 9.429c-6.033 2.698-17.929 7.179-29.948 11.399l-5.977 1.828-11.563 3.797 4.565 7.936c11.307 19.541 31.147 42.624 43.051 50.048 6.706 4.63 15.008 7.396 23.956 7.396 6.695 0 13.029-1.548 18.663-4.307l-0.251 0.111zM322.347 659.797c1.92-1.195 1.579-4.651-2.048-20.011-4.907-20.779-8.448-38.272-11.349-56.277l-1.963-12.075-16-13.909c-8.789-7.68-22.485-20.096-30.421-27.605l-14.464-13.696-4.267 7.296c-30.677 52.437-36.523 92.928-16.512 114.645 10.24 11.093 30.123 19.328 52.864 21.931 11.819 1.365 41.856 1.152 44.16-0.299zM746.965 659.541c25.088-3.371 42.581-10.837 52.907-22.613 7.637-8.704 9.984-16.853 9.813-34.475-0.213-18.389-6.144-37.803-19.499-63.872-13.355-25.941-10.24-25.344-30.891-5.888-8.715 8.25-18.537 17.369-28.442 26.398l-1.723 1.548-12.288 11.093-3.456 20.48c-3.047 18.083-5.75 31.358-8.787 44.506l1.021-5.253c-6.827 29.653-6.613 27.733-3.072 28.672 5.973 1.536 31.061 1.195 44.416-0.597zM536.491 589.397c27.819-15.104 52.096-30.080 79.019-48.853l20.779-14.464 1.408-18.133c1.835-23.381 1.835-96.512 0-119.893l-1.408-18.133-20.779-14.464c-32.171-22.485-46.251-31.189-81.195-50.133l-22.869-12.459-16.384 8.789c-33.346 18.349-60.945 35.641-87.549 54.259l3.069-2.035-22.869 15.957-1.408 18.176c-1.835 23.552-1.835 96.555 0 120.235l1.451 18.389 22.955 15.744c36.267 24.832 94.933 59.221 101.035 59.221 1.28 0 12.416-5.461 24.747-12.203zM486.144 507.179c-23.636-9.583-40.002-32.358-40.002-58.955 0-17.857 7.377-33.991 19.25-45.521l0.015-0.015c24.832-24.789 68.352-24.789 93.184 0 11.936 11.438 19.354 27.509 19.354 45.312s-7.418 33.874-19.332 45.291l-0.022 0.021c-12.8 12.8-23.339 16.896-44.885 17.451-15.659 0.384-19.157-0.043-27.563-3.584zM267.093 361.003c8.448-8.021 20.907-19.584 27.733-25.643l12.331-11.093 3.456-20.48c1.877-11.264 5.376-28.928 7.765-39.253l5.291-23.339c0.896-4.224 0.427-4.693-5.461-5.803-9.984-1.877-43.051 0.597-57.472 4.267-23.083 5.888-37.248 15.616-43.008 29.44-9.643 23.125-1.365 59.989 22.955 101.803 6.187 10.624 3.968 11.435 26.411-9.899zM792.107 353.28c16.939-34.091 22.101-63.659 14.592-83.157-8.789-22.827-39.296-35.456-85.589-35.456h-22.741l3.328 12.928c3.883 15.189 10.581 47.616 13.397 65.067 1.963 12.245 2.048 12.331 13.312 22.187 6.272 5.461 19.797 17.749 30.080 27.349l18.731 17.451 3.2-4.651c1.749-2.56 6.997-12.331 11.691-21.717zM524.117 193.621c6.912-2.816 22.571-8.704 34.773-13.056 12.245-4.352 22.571-8.149 22.955-8.491 0.427-0.341-1.067-3.84-3.285-7.808-18.261-33.067-46.635-57.557-66.56-57.557-20.096 0-46.891 23.253-67.2 58.24l-4.608 7.936 16.256 5.419c8.96 2.987 24.533 8.789 34.645 12.885 10.069 4.139 18.816 7.509 19.371 7.552 0.597 0.043 6.741-2.261 13.653-5.12z" />
<glyph unicode="&#xe91c;" glyph-name="at-sign" horiz-adv-x="1109" d="M523.221 916.352c-136.661-9.856-255.36-63.701-344.96-156.459-33.825-34.219-62.030-74.087-83.055-118.046l-1.127-2.616c-19.456-40.235-31.829-79.957-39.808-127.915-4.181-24.96-4.736-98.603-0.981-121.685 14.208-86.827 46.891-161.109 99.2-225.579 16.768-20.608 55.808-58.837 76.757-75.136 73.899-57.429 159.445-92.672 257.92-106.24 29.184-4.053 99.499-4.608 127.573-1.024 66.731 8.448 128.64 27.008 183.339 54.912 28.331 14.464 61.312 35.84 69.76 45.227 11.392 12.587 13.483 29.995 5.589 45.909-5.083 10.698-14.454 18.659-25.831 21.738l-0.281 0.065c-15.189 4.608-23.211 2.261-49.92-14.592-68.563-44.54-152.425-71.024-242.473-71.024-31.502 0-62.246 3.241-91.919 9.408l2.915-0.507c-156.459 30.635-281.771 142.933-318.891 285.739-7.114 26.81-11.199 57.589-11.199 89.323s4.085 62.513 11.759 91.84l-0.56-2.518c33.237 127.787 137.643 232.491 273.579 274.261 68.437 21.035 149.376 25.643 218.197 12.459 39.125-7.509 76.885-20.139 112.896-37.76 120.917-59.093 202.283-167.253 219.051-291.115 3.115-23.168 4.395-90.624 1.963-103.552-5.973-31.701-33.408-59.392-67.755-68.352-13.952-3.627-39.552-3.627-53.461 0-23.296 6.059-46.379 22.784-57.771 41.813-11.605 19.328-11.648 20.096-11.648 145.707 0 74.539-0.683 116.224-1.963 120.875-2.517 9.003-13.483 21.205-22.997 25.515-5.254 2.087-11.343 3.297-17.713 3.297-5.759 0-11.287-0.989-16.423-2.806l0.345 0.106c-14.464-6.059-26.155-22.315-26.24-36.48l-0.043-7.040-11.008 7.467c-22.417 15.056-48.579 26.7-76.656 33.419l-1.638 0.331c-14.507 3.456-22.357 4.053-53.077 4.053s-38.571-0.597-53.077-4.053c-44.374-10.226-82.619-32.090-112.588-62.199l-0.009-0.009c-30.3-29.393-51.464-68.047-58.921-111.389l-0.172-1.209c-6.869-38.997 0.512-87.552 18.816-123.691 29.483-58.197 85.973-100.693 156.032-117.376 19.84-4.693 80-4.693 99.84 0 44.587 10.624 80.725 29.525 110.976 58.027l12.075 11.392 12.885-14.037c80.128-87.424 225.237-77.611 291.029 19.669 9.856 14.549 17.323 30.848 22.784 49.621 3.883 13.525 4.139 17.792 4.139 69.888 0 36.48-0.811 60.843-2.389 71.168-16.299 105.643-62.037 194.304-138.325 268.16-33.953 33.096-72.926 61.268-115.622 83.222l-2.693 1.258c-75.221 38.528-147.627 56.661-233.685 58.539-6.336 0.192-13.79 0.302-21.269 0.302s-14.932-0.11-22.359-0.327l1.089 0.025zM584.533 572.843c48.128-9.259 90.581-43.477 105.088-84.736 17.024-48.384 2.219-100.096-38.272-133.632-14.178-12.172-31.005-21.725-49.454-27.663l-1.021-0.284c-14.635-4.821-17.792-5.163-46.208-5.163s-31.573 0.341-46.208 5.163c-43.989 14.464-75.904 44.459-90.112 84.651-4.181 11.819-4.779 16.555-4.779 36.693s0.597 24.832 4.779 36.651c6.613 18.731 14.976 32.171 29.099 46.635 19.939 20.548 45.798 35.248 74.823 41.347l0.953 0.168c9.378 1.582 20.182 2.487 31.198 2.487 10.63 0 21.063-0.842 31.236-2.463l-1.122 0.147z" />
<glyph unicode="&#xe91d;" glyph-name="attachment" d="M401.067 872.789c-69.205-7.765-133.845-53.291-164.992-116.224-7.337-14.954-13.741-32.461-18.294-50.701l-0.394-1.864c-2.816-11.861-3.072-27.221-3.584-206.379-0.597-207.787-0.427-213.888 8.192-248.448 36.651-147.243 178.176-244.693 327.040-225.195 134.144 17.536 237.696 119.040 258.517 253.355 1.707 11.051 2.261 44.928 2.261 141.653v127.147l-4.651 7.936c-7.625 12.82-21.406 21.277-37.163 21.277s-29.538-8.457-37.054-21.079l-0.109-0.198-4.651-7.936-1.067-127.147c-0.64-76.373-1.749-130.603-2.816-135.765-18.261-89.173-81.536-153.643-169.387-172.587-20.053-4.309-61.781-4.309-81.835 0-19.969 4.492-37.485 10.625-54.017 18.493l1.537-0.658c-56.107 27.307-98.091 79.403-113.749 141.184-5.845 23.040-6.4 44.8-5.845 231.253l0.512 183.467 4.309 13.696c13.198 41.097 44.97 72.812 85.172 85.674l0.929 0.257c11.648 3.541 17.195 4.181 36.736 4.181s25.088-0.64 36.736-4.181c41.132-13.119 72.903-44.834 85.843-85.002l0.259-0.929 4.309-13.696 0.555-182.613c0.384-128.896-0.043-185.173-1.365-191.317-2.389-11.093-10.112-21.632-20.267-27.605-6.741-3.968-9.856-4.651-20.736-4.651-10.837 0-13.995 0.725-20.651 4.608-8.3 5.091-14.83 12.349-18.903 20.992l-0.126 0.298c-1.664 3.712-2.347 46.464-2.987 187.435l-0.853 182.613-4.651 7.936c-7.625 12.82-21.406 21.277-37.163 21.277s-29.538-8.457-37.054-21.079l-0.109-0.198-4.651-7.936v-377.173l4.011-12.8c13.117-41.864 45.432-74.179 86.363-87.043l0.933-0.253c18.517-5.76 53.163-5.76 71.68 0 41.864 13.117 74.179 45.432 87.043 86.363l0.253 0.933 4.011 12.8v195.413c0 182.699-0.213 196.352-3.115 209.877-14.293 66.347-55.808 120.448-115.157 150.101-27.489 13.861-59.916 21.977-94.238 21.977-9.012 0-17.893-0.56-26.61-1.646l1.041 0.106z" />
<glyph unicode="&#xe91e;" glyph-name="award" d="M478.165 958.165c-70.624-7.466-133.63-35.294-184.327-77.424l0.562 0.454c-37.391-30.892-67.604-69.048-88.726-112.443l-0.874-1.989c-21.414-43.348-33.942-94.376-33.942-148.33 0-81.7 28.725-156.69 76.627-215.423l-0.488 0.617c10.539-12.971 38.4-40.875 50.731-50.816l6.741-5.419-24.448-184.149c-18.005-135.296-24.149-186.197-23.296-192 3.584-23.979 31.403-40.96 54.144-33.109 4.096 1.408 50.944 28.672 104.107 60.629l96.725 58.069 95.275-57.259c52.437-31.488 98.987-58.667 103.424-60.416 4.511-1.842 9.746-2.911 15.23-2.911 11.609 0 22.1 4.79 29.603 12.501l0.009 0.009c7.125 7.125 12.715 19.413 12.8 28.075 0 2.432-10.88 86.784-24.235 187.477l-24.235 183.083 6.699 5.419c3.712 2.987 14.293 12.757 23.552 21.717 63.837 61.793 103.464 148.262 103.464 243.986 0 53.942-12.583 104.945-34.975 150.233l0.887-1.985c-21.996 45.384-52.209 83.54-89.035 113.979l-0.565 0.453c-69.035 57.771-160.512 85.76-251.435 76.971zM536.064 873.003c101.554-9.811 185.034-77.751 217.351-169.772l0.548-1.791c21.205-62.165 16.939-136.149-11.136-192.853-36.651-74.027-100.523-123.691-181.333-141.013-25.856-5.547-73.131-5.547-98.987 0-81.28 17.451-144.469 66.56-181.333 141.013-28.075 56.704-32.341 130.688-11.136 192.853 13.084 37.66 33.544 69.843 59.826 96.221l-0.007-0.008c45.938 47.268 110.117 76.596 181.147 76.596 8.826 0 17.546-0.453 26.138-1.336l-1.077 0.090zM405.504 294.571c70.315-23.040 142.677-23.040 213.035 0 11.179 3.669 20.48 6.485 20.651 6.229 0.981-1.152 31.573-237.312 30.891-237.995-0.469-0.469-32.171 17.92-70.485 40.875s-72.277 42.624-75.477 43.691c-3.601 1.132-7.753 1.841-12.053 1.961l-0.064 0.001c-3.456 0-8.917-0.896-12.117-1.963s-37.163-20.736-75.477-43.691c-38.315-22.955-70.016-41.344-70.443-40.917-0.683 0.683 30.165 238.464 30.933 238.464 0.171 0 9.429-2.987 20.608-6.656z" />
<glyph unicode="&#xe91f;" glyph-name="backpack" d="M447.019 871.552c-28.629-7.509-52.864-32-60.459-61.227-1.408-5.376-2.56-12.16-2.56-15.147v-5.333l-20.053-2.048c-30.891-3.115-53.035-9.685-78.848-23.381-47.959-25.371-84.362-67.204-102.116-117.81l-0.454-1.486c-11.051-31.872-10.752-27.648-11.392-160.853l-0.597-121.6h-23.552c-34.005 0-45.995-4.693-56.192-22.016l-4.608-7.851-0.512-74.923c-0.512-80.811-0.128-85.504 8.277-103.296 6.229-13.184 24.277-31.829 37.035-38.315 10.24-5.163 25.899-9.6 34.048-9.6 5.248 0 5.632-0.384 5.632-5.632 0-8.149 4.437-23.808 9.6-34.048 5.803-11.477 24.576-30.251 36.053-36.053 19.968-10.112 4.352-9.6 295.68-9.6s275.712-0.512 295.68 9.6c11.349 5.76 30.208 24.533 35.883 35.755 4.992 9.813 9.771 26.795 9.771 34.688 0 4.864 0.469 5.291 5.632 5.291 8.149 0 23.808 4.437 34.048 9.6 11.349 5.76 30.208 24.533 35.883 35.755 9.557 18.859 9.941 23.125 9.429 105.344l-0.512 75.435-4.608 7.851c-10.197 17.323-22.187 22.016-56.192 22.016h-23.552l-0.597 121.6c-0.512 109.269-0.896 122.88-3.627 134.4-13.483 56.832-45.184 103.893-89.813 133.419-32.981 21.803-60.8 31.829-99.029 35.669l-19.712 2.005-2.048 12.928c-2.575 17.143-10.18 32.17-21.243 43.901l0.038-0.040c-10.601 11.724-24.319 20.442-39.849 24.857l-0.599 0.146c-16.597 4.309-113.365 4.309-129.963 0zM676.736 698.795c41.112-13.221 72.86-44.955 85.841-85.126l0.26-0.932 4.309-13.696 0.939-492.373h-85.419l-0.043 90.027c0 97.195-0.384 102.229-9.301 119.765-5.76 11.392-20.651 27.051-32.597 34.219-19.328 11.648-21.035 11.776-128.725 11.776s-109.397-0.128-128.725-11.776c-11.947-7.168-26.837-22.827-32.597-34.219-9.131-17.963-9.344-20.651-9.344-118.827v-90.965h-85.419l0.939 492.373 4.309 13.696c14.667 46.162 53.158 80.659 100.664 89.351l0.797 0.121c4.693 0.811 74.24 1.323 154.496 1.195l145.92-0.299 13.696-4.309zM370.987 573.568c-10.333-3.519-18.737-10.43-24.080-19.381l-0.112-0.203c-3.883-6.656-4.608-9.813-4.608-20.651 0-10.923 0.683-13.995 4.736-20.864 5.333-9.088 13.568-16 22.997-19.371s274.731-3.371 284.16 0c9.429 3.371 17.664 10.283 22.997 19.371 4.053 6.869 4.736 9.941 4.736 20.864 0 10.837-0.725 13.995-4.608 20.651-5.526 9.348-14.195 16.34-24.524 19.586l-0.308 0.084c-11.093 3.328-270.72 3.243-281.387-0.085zM597.333 192v-85.333h-170.667v170.667h170.667v-85.333z" />
<glyph unicode="&#xe920;" glyph-name="badge" d="M370.987 872.235c-10.333-3.519-18.737-10.43-24.080-19.381l-0.112-0.203-4.608-7.851-0.555-118.613-0.512-118.613-10.581-7.979c-76.672-58.027-120.277-150.955-116.736-248.747 1.579-43.605 11.051-79.787 31.957-122.155 17.707-35.797 39.68-64.469 69.376-90.453 52.136-45.968 121.017-74.027 196.452-74.027 36.589 0 71.636 6.601 104.016 18.677l-2.057-0.672c83.455 30.8 148.102 95.446 178.232 176.837l0.669 2.064c13.355 37.12 17.323 61.269 17.195 104.96-0.085 29.184-0.64 35.925-4.608 54.699-15.147 71.979-57.472 139.648-112.299 179.584l-9.899 7.211-1.024 237.227-4.608 7.851c-5.526 9.348-14.195 16.34-24.524 19.586l-0.308 0.084c-11.093 3.328-270.72 3.243-281.387-0.085zM597.333 719.36c0-38.485-0.469-69.973-0.981-69.973-6.42 1.286-11.157 2.423-15.84 3.691l1.76-0.406c-23.467 5.888-39.893 7.68-70.272 7.68s-46.805-1.792-70.272-7.68c-2.923-0.863-7.66-1.999-12.447-3l-1.633-0.286c-0.512 0-0.981 31.488-0.981 69.973v69.973h170.667v-69.973zM553.813 571.776c68.011-14.72 121.301-56.789 151.211-119.339 12.554-26.351 19.886-57.266 19.886-89.894 0-34.261-8.085-66.634-22.45-95.315l0.558 1.23c-29.653-59.349-83.755-100.864-150.101-115.157-17.536-3.755-63.36-4.267-79.317-0.811-43.392 9.301-77.611 26.923-108.117 55.723-41.019 38.89-66.541 93.773-66.541 154.617 0 107.103 79.085 195.736 182.044 210.686l1.148 0.137c18.603 2.688 54.784 1.749 71.68-1.877zM501.419 478.123c-15.829-4.395-21.547-10.325-36.437-37.803l-6.656-12.288c-5.109-1.121-12.839-2.451-20.643-3.554l-2.099-0.243c-12.629-1.963-25.429-4.949-29.141-6.827-19.328-9.856-27.776-35.285-18.347-55.040 2.688-5.589 13.781-17.408 29.568-31.488l5.461-4.907-3.285-15.36c-5.333-25.045-4.309-34.133 5.547-48.043 7.504-10.217 19.471-16.775 32.971-16.775 0.259 0 0.517 0.002 0.775 0.007l-0.039-0.001c10.027 0 13.099 0.981 32.043 10.069l20.907 10.112 18.347-8.704c23.467-11.136 29.739-13.013 39.168-11.733 20.736 2.859 38.144 22.016 37.973 41.856-0.73 8.455-1.908 16.089-3.548 23.549l0.22-1.191-3.243 16.213 5.419 4.907c16.213 14.549 26.837 25.899 29.525 31.488 2.397 5.148 3.796 11.175 3.796 17.529 0 15.486-8.309 29.032-20.711 36.422l-0.194 0.107c-5.888 3.456-13.013 5.291-30.251 7.851-9.93 1.311-17.695 2.613-25.381 4.133l2.554-0.421c2.28-4.855-0.258-0.263-2.778 4.341l-4.86 9.696c-11.563 21.333-16.043 27.051-25.003 31.915-6.010 3.503-13.23 5.57-20.932 5.57-3.814 0-7.509-0.507-11.022-1.457l0.295 0.068z" />
<glyph unicode="&#xe921;" glyph-name="bag-alt" d="M371.157 872.277c-8.884-2.494-16.271-7.846-21.295-14.982l-0.081-0.122c-3.285-4.523-16.597-41.984-43.435-122.496l-38.699-116.011h-72.917c-82.859 0-84.053-0.171-96.64-12.757-7.424-7.424-12.757-19.541-12.757-29.013 0-8.021 79.701-486.784 82.688-496.811 5.333-17.749 20.651-36.395 38.955-47.36 20.352-12.203 1.579-11.563 309.291-11.008l276.48 0.469 11.477 4.608c22.187 8.875 39.851 25.856 48.64 46.677 5.888 13.952 86.571 495.573 85.163 508.245-1.587 11.201-7.323 20.831-15.575 27.455l-0.084 0.065c-11.904 9.045-15.573 9.429-93.909 9.429h-72.107l-38.741 116.224c-42.155 126.208-42.155 126.208-57.301 134.101-5.87 3.238-12.867 5.144-20.309 5.144-23.564 0-42.667-19.103-42.667-42.667 0-0.038 0-0.077 0-0.115v0.006c0-4.352 12.203-43.605 33.536-107.648l34.304-102.912c0.64-1.707-30.72-2.133-153.173-2.133s-153.813 0.427-153.173 2.133l34.304 102.912c21.333 64.043 33.536 103.296 33.536 107.648 0 28.928-27.947 49.579-55.509 40.917zM844.8 530.731c0-1.408-15.744-97.024-34.987-212.437s-34.987-210.261-34.987-210.731c0-0.512-118.229-0.896-262.699-0.896h-262.699l-0.981 4.693c-1.792 8.704-69.248 417.323-69.248 419.669 0 1.92 53.12 2.304 332.8 2.304 296.149 0 332.8-0.299 332.8-2.603zM328.32 445.568c-10.333-3.519-18.737-10.43-24.080-19.381l-0.112-0.203-4.608-7.851v-196.523l5.163-8.405c2.901-4.693 8.747-10.795 13.269-13.867 20.096-13.483 47.019-7.296 60.032 13.867l5.163 8.405v196.523l-4.608 7.851c-7.531 12.997-21.374 21.6-37.227 21.6-4.641 0-9.109-0.737-13.295-2.101l0.303 0.085zM498.987 445.568c-10.333-3.519-18.737-10.43-24.080-19.381l-0.112-0.203-4.608-7.851v-196.523l5.163-8.405c2.901-4.693 8.747-10.795 13.269-13.867 20.096-13.483 47.019-7.296 60.032 13.867l5.163 8.405v196.523l-4.608 7.851c-7.531 12.997-21.374 21.6-37.227 21.6-4.641 0-9.109-0.737-13.295-2.101l0.303 0.085zM669.653 445.568c-10.333-3.519-18.737-10.43-24.080-19.381l-0.112-0.203-4.608-7.851v-196.523l5.163-8.405c2.901-4.693 8.747-10.795 13.269-13.867 20.096-13.483 47.019-7.296 60.032 13.867l5.163 8.405v196.523l-4.608 7.851c-7.531 12.997-21.374 21.6-37.227 21.6-4.641 0-9.109-0.737-13.295-2.101l0.303 0.085z" />
<glyph unicode="&#xe922;" glyph-name="bank" d="M498.176 872.149c-3.413-1.237-94.805-61.355-203.136-133.589-207.744-138.539-202.88-134.997-208.043-151.296-4.693-14.805 1.92-35.029 14.592-44.672 11.179-8.533 15.232-9.088 65.237-9.173l46.507-0.085v-426.667h-44.971c-49.024 0-55.552-0.939-66.731-9.429-3.413-2.603-8.32-8.277-10.837-12.587-3.883-6.656-4.608-9.813-4.608-20.651 0-10.923 0.683-13.995 4.736-20.864 5.333-9.088 13.568-16 22.997-19.371 5.291-1.877 75.179-2.261 398.080-2.261s392.789 0.384 398.080 2.261c9.429 3.371 17.664 10.283 22.997 19.371 4.053 6.869 4.736 9.941 4.736 20.864 0 10.837-0.725 13.995-4.608 20.651-3.006 4.864-6.602 9.016-10.76 12.523l-0.077 0.063c-11.179 8.491-17.707 9.429-66.731 9.429h-44.971v426.667h45.781c52.864 0 57.131 0.811 69.291 12.928 7.858 7.658 12.732 18.345 12.732 30.171 0 9.578-3.198 18.41-8.584 25.485l0.075-0.103c-4.352 6.144-394.539 266.837-404.736 270.421-3.996 1.403-8.604 2.213-13.401 2.213-4.889 0-9.582-0.842-13.941-2.388l0.291 0.090zM633.6 699.733l121.6-81.067h-486.4l121.173 80.939c-77.788-48.146-38.168-21.438 1.513 5.187l120.087 75.88c0.256 0.085 55.168-36.352 122.027-80.939zM469.333 320v-213.333h-170.667v426.667h170.667v-213.333zM725.333 320v-213.333h-170.667v426.667h170.667v-213.333z" />
<glyph unicode="&#xe923;" glyph-name="bar-chart" d="M754.987 829.568c-10.333-3.519-18.737-10.43-24.080-19.381l-0.112-0.203-4.608-7.851v-708.523l5.163-8.405c7.549-12.6 21.13-20.904 36.651-20.904s29.102 8.304 36.543 20.711l0.107 0.193 5.163 8.405v708.523l-4.608 7.851c-7.531 12.997-21.374 21.6-37.227 21.6-4.641 0-9.109-0.737-13.295-2.101l0.303 0.085zM498.987 573.568c-10.333-3.519-18.737-10.43-24.080-19.381l-0.112-0.203-4.608-7.851v-452.523l5.163-8.405c7.549-12.6 21.13-20.904 36.651-20.904s29.102 8.304 36.543 20.711l0.107 0.193 5.163 8.405v452.523l-4.608 7.851c-7.531 12.997-21.374 21.6-37.227 21.6-4.641 0-9.109-0.737-13.295-2.101l0.303 0.085zM242.987 317.568c-10.333-3.519-18.737-10.43-24.080-19.381l-0.112-0.203-4.608-7.851v-196.523l5.163-8.405c2.901-4.693 8.747-10.795 13.269-13.867 20.096-13.483 47.019-7.296 60.032 13.867l5.163 8.405v196.523l-4.608 7.851c-7.531 12.997-21.374 21.6-37.227 21.6-4.641 0-9.109-0.737-13.295-2.101l0.303 0.085z" />
<glyph unicode="&#xe924;" glyph-name="bar-chart-alt" horiz-adv-x="1109" d="M543.488 829.909c-11.818-3.227-21.337-11.24-26.516-21.772l-0.108-0.244-4.736-9.472v-701.44l5.163-9.856c9.088-17.365 28.715-26.88 46.165-22.315 12.971 3.371 22.613 10.923 28.587 22.315l5.163 9.856v701.44l-4.736 9.472c-5.39 11.024-15.272 19.144-27.197 22.044l-0.28 0.058c-10.88 2.859-10.624 2.859-21.504-0.085zM814.421 571.989c-9.515-4.352-20.437-16.512-22.955-25.557-1.323-4.779-1.963-77.995-1.963-228.267l-0.043-221.184 5.163-9.856c9.088-17.365 28.715-26.88 46.165-22.315 12.971 3.371 22.613 10.923 28.587 22.315l5.163 9.856-0.043 221.184c0 150.272-0.64 223.488-1.963 228.267-2.517 9.045-13.44 21.205-22.955 25.557-5.207 2.115-11.245 3.351-17.57 3.371h-0.008c-5.888 0-13.269-1.408-17.579-3.371zM263.936 402.688c-11.093-3.925-19.925-11.861-24.704-22.101l-4.395-9.472v-137.045l-0.043-137.088 5.163-9.856c9.088-17.365 28.715-26.88 46.165-22.315 12.971 3.371 22.613 10.923 28.587 22.315l5.163 9.856-0.043 137.088v137.045l-4.395 9.472c-7.084 14.317-21.396 24.095-38.039 24.575l-0.063 0.001c-3.541 0-9.6-1.109-13.397-2.475z" />
<glyph unicode="&#xe925;" glyph-name="barcode-scan" horiz-adv-x="983" d="M143.688 846.787c-20.89-4.915-44.36-24.044-53.617-43.704-7.946-16.876-8.151-19.948-8.151-115.63 0-66.396 0.532-91.75 2.007-96.707 1.229-4.137 5.243-10.035 10.24-15.237 17.408-17.859 42.066-17.408 58.737 1.106 3.85 4.342 7.905 10.772 8.97 14.377 1.434 4.628 1.966 30.474 1.966 91.095v84.582h83.272c97.116 0 95.805-0.164 109.322 13.722 20.357 20.849 14.254 52.716-12.37 64.799-7.168 3.236-10.158 3.318-100.762 3.195-51.364-0.082-96.174-0.778-99.615-1.597zM638.157 844.698c-14.114-6.427-23.749-20.409-23.749-36.641 0-4.473 0.732-8.775 2.082-12.794l-0.083 0.283c1.229-4.137 5.202-10.035 10.24-15.196 13.476-13.844 12.206-13.681 109.281-13.681h83.272v-84.582c0-62.177 0.532-86.385 2.007-91.341 1.229-4.137 5.243-10.035 10.24-15.237 17.408-17.859 42.066-17.408 58.737 1.106 3.85 4.342 7.905 10.772 8.97 14.377 1.434 4.669 1.966 31.703 1.966 96.461 0 75.53-0.41 91.546-2.499 99.615-7.288 25.947-25.67 46.572-49.569 56.761l-0.566 0.214c-8.806 3.727-8.97 3.727-105.472 4.137l-96.666 0.451-8.192-3.932zM310.477 680.858c-9.22-4.095-16.403-11.384-20.261-20.43l-0.096-0.254c-2.908-6.472-3.318-10.772-3.359-35.021-0.041-33.464 1.147-38.216 12.206-49.644 17.449-17.9 42.066-17.408 58.819 1.188 10.035 11.182 11.223 16.957 10.568 50.872-0.492 25.436-0.942 29.204-4.096 35.062-7.031 13.21-20.712 22.050-36.458 22.050-6.286 0-12.244-1.409-17.573-3.929l0.25 0.107zM474.317 680.858c-9.22-4.095-16.403-11.384-20.261-20.43l-0.096-0.254c-2.908-6.472-3.318-10.772-3.359-35.021-0.041-33.464 1.147-38.216 12.206-49.644 17.449-17.9 42.066-17.408 58.819 1.188 10.035 11.182 11.223 16.957 10.568 50.872-0.492 25.436-0.942 29.204-4.096 35.062-7.031 13.21-20.712 22.050-36.458 22.050-6.286 0-12.244-1.409-17.573-3.929l0.25 0.107zM638.157 680.858c-9.22-4.095-16.403-11.384-20.261-20.43l-0.096-0.254c-2.908-6.472-3.318-10.772-3.359-35.021-0.041-33.464 1.147-38.216 12.206-49.644 17.449-17.9 42.066-17.408 58.819 1.188 10.035 11.182 11.223 16.957 10.568 50.872-0.492 25.436-0.942 29.204-4.096 35.062-7.031 13.21-20.712 22.050-36.458 22.050-6.286 0-12.244-1.409-17.573-3.929l0.25 0.107zM146.637 476.058c-14.114-6.427-23.749-20.409-23.749-36.641 0-4.473 0.732-8.775 2.082-12.794l-0.083 0.283c1.229-4.137 5.202-10.035 10.24-15.196 14.541-14.95-18.432-13.681 356.393-13.681 374.907 0 341.811-1.27 356.434 13.722 20.357 20.849 14.254 52.716-12.37 64.799-7.332 3.318-8.847 3.318-344.064 3.359h-336.691l-8.192-3.85zM105.677 312.218c-9.22-4.095-16.403-11.384-20.261-20.43l-0.096-0.254c-3.236-7.127-3.318-10.363-3.359-97.812-0.041-59.843 0.573-93.389 1.761-99.123 6.431-30.761 32.154-56.197 63.529-62.833 8.52-1.843 29.368-2.335 96.993-2.335 100.352-0.041 98.591-0.246 112.189 13.681 20.357 20.849 14.254 52.716-12.37 64.799-7.127 3.195-10.404 3.318-93.757 3.359l-86.344 0.041-0.492 88.064c-0.451 86.671-0.492 88.187-3.973 94.618-7.042 13.212-20.73 22.052-36.484 22.052-6.292 0-12.254-1.41-17.588-3.932l0.251 0.107zM310.477 312.218c-9.22-4.095-16.403-11.384-20.261-20.43l-0.096-0.254c-2.908-6.472-3.318-10.772-3.359-35.021-0.041-33.464 1.147-38.216 12.206-49.644 17.449-17.9 42.066-17.408 58.819 1.188 10.035 11.182 11.223 16.957 10.568 50.872-0.492 25.436-0.942 29.204-4.096 35.062-7.031 13.21-20.712 22.050-36.458 22.050-6.286 0-12.244-1.409-17.573-3.929l0.25 0.107zM474.317 312.218c-9.22-4.095-16.403-11.384-20.261-20.43l-0.096-0.254c-2.908-6.472-3.318-10.772-3.359-35.021-0.041-33.464 1.147-38.216 12.206-49.644 17.449-17.9 42.066-17.408 58.819 1.188 10.035 11.182 11.223 16.957 10.568 50.872-0.492 25.436-0.942 29.204-4.096 35.062-7.031 13.21-20.712 22.050-36.458 22.050-6.286 0-12.244-1.409-17.573-3.929l0.25 0.107zM638.157 312.218c-9.22-4.095-16.403-11.384-20.261-20.43l-0.096-0.254c-2.908-6.472-3.318-10.772-3.359-35.021-0.041-33.464 1.147-38.216 12.206-49.644 17.449-17.9 42.066-17.408 58.819 1.188 10.035 11.182 11.223 16.957 10.568 50.872-0.492 25.436-0.942 29.204-4.096 35.062-7.031 13.21-20.712 22.050-36.458 22.050-6.286 0-12.244-1.409-17.573-3.929l0.25 0.107zM842.957 312.218c-9.22-4.095-16.403-11.384-20.261-20.43l-0.096-0.254c-3.195-7.127-3.318-10.404-3.359-93.798l-0.041-86.426-172.851-0.041-8.192-3.85c-14.114-6.427-23.749-20.409-23.749-36.641 0-4.473 0.732-8.775 2.082-12.794l-0.083 0.283c1.229-4.137 5.202-10.035 10.24-15.196 13.517-13.885 11.837-13.681 112.148-13.64 67.625 0 88.474 0.492 96.993 2.335 31.908 6.758 57.672 32.645 63.652 63.98 1.311 6.84 1.72 37.478 1.352 100.762-0.492 89.58-0.532 91.013-4.014 97.485-7.042 13.212-20.73 22.052-36.484 22.052-6.292 0-12.254-1.41-17.588-3.932l0.251 0.107z" />
<glyph unicode="&#xe926;" glyph-name="barrier" d="M242.987 872.235c-10.333-3.519-18.737-10.43-24.080-19.381l-0.112-0.203c-4.395-7.509-4.651-9.045-5.163-35.584l-0.597-27.733-26.709-0.085c-19.541-0.085-29.781-0.896-37.973-3.029-28.629-7.509-52.864-32-60.459-61.227-3.712-14.123-3.712-113.195 0-127.317 3.968-15.36 10.667-26.709 22.869-38.912 20.352-20.352 35.413-25.429 75.605-25.429h26.965v-85.333l-26.88-0.085c-19.627-0.085-29.909-0.896-38.101-3.029-28.629-7.509-52.864-32-60.459-61.227-3.712-14.123-3.712-113.195 0-127.317 3.968-15.36 10.667-26.709 22.869-38.912 20.352-20.352 35.413-25.429 75.605-25.429h26.965v-85.333h-23.637c-34.048 0-46.037-4.693-56.235-22.016-3.883-6.656-4.608-9.813-4.608-20.651 0-10.923 0.683-13.995 4.736-20.864 5.333-9.088 13.568-16 22.997-19.371 5.035-1.792 26.027-2.261 99.413-2.261s94.379 0.469 99.413 2.261c9.429 3.371 17.664 10.283 22.997 19.371 4.053 6.869 4.736 9.941 4.736 20.864 0 10.837-0.725 13.995-4.608 20.651-10.197 17.323-22.187 22.016-56.235 22.016h-23.637v85.333h426.667v-85.333h-23.637c-34.048 0-46.037-4.693-56.235-22.016-3.883-6.656-4.608-9.813-4.608-20.651 0-10.923 0.683-13.995 4.736-20.864 5.333-9.088 13.568-16 22.997-19.371 9.344-3.328 189.483-3.328 198.827 0 9.429 3.371 17.664 10.283 22.997 19.371 4.053 6.869 4.736 9.941 4.736 20.864 0 10.837-0.725 13.995-4.608 20.651-10.197 17.323-22.187 22.016-56.235 22.016h-23.637v85.333h26.965c40.192 0 55.253 5.077 75.605 25.429 12.373 12.373 18.645 23.083 22.741 38.955 3.797 14.592 3.883 110.421 0.128 126.379-3.316 14.688-10.44 27.375-20.278 37.387l0.011-0.011c-19.925 21.461-37.333 27.605-78.293 27.776l-26.88 0.085v85.333h26.965c40.192 0 55.253 5.077 75.605 25.429 12.373 12.373 18.645 23.083 22.741 38.955 3.797 14.592 3.883 110.421 0.128 126.379-3.316 14.688-10.44 27.375-20.278 37.387l0.011-0.011c-19.925 21.419-37.333 27.605-78.165 27.776l-26.709 0.085-0.597 27.733c-0.512 26.624-0.725 28.032-5.205 35.669-7.625 12.82-21.406 21.277-37.163 21.277s-29.538-8.457-37.054-21.079l-0.109-0.198c-4.48-7.637-4.693-9.045-5.205-35.669l-0.597-27.733h-426.069l-0.597 27.733c-0.512 26.539-0.768 28.075-5.163 35.584-7.531 12.997-21.374 21.6-37.227 21.6-4.641 0-9.109-0.737-13.295-2.101l0.303 0.085zM853.333 661.333v-42.667h-682.667v85.333h682.667v-42.667zM725.333 490.667v-42.667h-426.667v85.333h426.667v-42.667zM853.333 320v-42.667h-682.667v85.333h682.667v-42.667z" />
<glyph unicode="&#xe927;" glyph-name="bathtub-left" d="M277.291 787.627c-48.043-8.704-86.059-42.24-101.675-89.6-3.84-11.648-3.968-13.952-4.565-88.32l-0.597-76.373h-23.509c-33.963 0-45.995-4.736-56.149-22.016-3.925-6.656-4.608-9.813-4.608-20.779 0-11.435 0.597-13.909 5.163-21.333 6.229-10.155 18.603-18.901 28.928-20.437l7.509-1.109 0.683-78.763c0.725-85.589 0.939-87.851 11.392-118.016 10.112-29.227 25.173-54.187 46.123-76.459 30.805-32.768 68.821-53.973 114.432-63.787 13.525-2.901 27.221-3.115 211.584-3.115s198.059 0.213 211.584 3.115c75.904 16.341 135.765 68.523 160.427 139.904 10.581 30.549 10.795 32.64 11.52 118.357l0.683 78.763 7.509 1.109c10.325 1.536 22.699 10.283 28.928 20.437 4.565 7.424 5.163 9.899 5.163 21.333 0 10.965-0.683 14.123-4.608 20.779-5.526 9.348-14.195 16.34-24.524 19.586l-0.308 0.084c-6.485 1.963-61.952 2.347-330.069 2.347h-322.304v66.261c0 76.672 0.299 78.848 12.928 91.477 7.808 7.808 19.627 12.928 29.739 12.928 9.515 0 21.76-5.12 28.971-12.075 8.832-8.619 11.605-15.061 13.739-31.915 2.048-16.171 7.808-26.283 19.243-34.005 20.096-13.483 47.019-7.253 60.032 13.867 4.907 8.021 5.163 9.301 5.077 26.453-0.043 13.824-0.981 21.035-3.968 30.848-12.757 41.643-45.824 74.795-86.357 86.656-15.403 4.523-43.904 6.357-58.112 3.797zM810.283 372.48c-0.597-74.795-0.64-75.648-4.864-89.216-13.251-41.44-45.367-73.388-85.981-86.148l-0.931-0.252-12.8-4.011h-387.413l-12.8 4.011c-41.545 13.012-73.661 44.96-86.654 85.47l-0.258 0.93c-4.224 13.568-4.267 14.421-4.864 89.216l-0.597 75.52h597.76l-0.597-75.52z" />
<glyph unicode="&#xe928;" glyph-name="bathtub-right" d="M703.957 830.293c-48.624-8.901-87.303-43.826-101.471-89.531l-0.246-0.922c-2.987-9.813-3.925-17.024-3.968-30.848-0.085-17.152 0.171-18.432 5.077-26.453 16.896-27.477 56.149-27.861 72.875-0.725 3.328 5.461 5.205 11.563 6.4 20.864 2.133 16.853 4.907 23.296 13.739 31.915 7.211 6.955 19.456 12.075 28.971 12.075 10.112 0 21.931-5.12 29.739-12.928 12.629-12.629 12.928-14.805 12.928-91.477v-66.261h-322.304c-268.117 0-323.584-0.384-330.069-2.347-10.637-3.329-19.306-10.321-24.721-19.468l-0.111-0.202c-3.925-6.656-4.608-9.813-4.608-20.779 0-11.435 0.597-13.909 5.163-21.333 6.229-10.155 18.603-18.901 28.928-20.437l7.509-1.109 0.683-78.763c0.725-85.589 0.939-87.851 11.392-118.016 10.289-29.787 26.052-55.337 46.253-76.637l-0.088 0.093c11.008-11.691 37.717-33.877 42.923-35.627 0.981-0.299-2.048-15.36-7.125-35.499-9.941-39.509-10.283-47.403-2.603-60.587 7.616-12.673 21.29-21.021 36.914-21.021 10.52 0 20.156 3.784 27.62 10.066l-0.065-0.053c8.533 7.040 12.032 15.36 20.096 47.744l7.040 28.16h402.261l7.808-30.72c8.747-34.304 12.203-41.131 25.173-49.109 6.26-3.798 13.826-6.045 21.917-6.045 15.579 0 29.212 8.333 36.684 20.785l0.108 0.194c7.68 13.184 7.339 21.077-2.603 60.587-5.12 20.309-8.107 35.2-7.083 35.541 0.896 0.299 6.912 4.437 13.312 9.216 42.368 31.531 70.912 75.776 83.456 129.365 2.56 10.965 3.115 24.064 3.669 91.563l0.683 78.763 7.509 1.109c10.325 1.536 22.699 10.283 28.928 20.437 4.565 7.424 5.163 9.899 5.163 21.333 0 10.965-0.683 14.123-4.608 20.779-10.155 17.28-22.187 22.016-56.149 22.016h-23.509l-0.597 76.373c-0.597 74.368-0.725 76.672-4.565 88.32-13.781 41.813-46.251 74.069-86.315 85.803-15.403 4.523-43.904 6.357-58.112 3.797zM810.283 415.147c-0.597-74.795-0.64-75.648-4.864-89.216-13.251-41.44-45.367-73.388-85.981-86.148l-0.931-0.252-12.8-4.011h-387.413l-12.8 4.011c-41.545 13.012-73.661 44.96-86.654 85.47l-0.258 0.93c-4.224 13.568-4.267 14.421-4.864 89.216l-0.597 75.52h597.76l-0.597-75.52z" />
<glyph unicode="&#xe929;" glyph-name="battery-100-line" d="M413.653 872.235c-10.333-3.519-18.737-10.43-24.080-19.381l-0.112-0.203c-4.395-7.509-4.651-9.045-5.163-35.584l-0.597-27.733-26.709-0.085c-31.019-0.128-43.733-2.688-59.051-11.904-11.947-7.168-26.837-22.827-32.597-34.219-9.856-19.413-9.344-0.811-9.344-337.792 0-338.005-0.555-318.293 9.6-338.347 5.803-11.477 24.576-30.251 36.053-36.053 19.584-9.941 12.373-9.6 210.347-9.6s190.763-0.341 210.347 9.6c11.349 5.76 30.208 24.533 35.883 35.755 10.368 20.395 9.771 0.341 9.728 338.048 0 335.275 0.427 319.232-9.301 338.389-5.76 11.392-20.651 27.051-32.597 34.219-15.317 9.216-28.032 11.776-59.051 11.904l-26.709 0.085-0.597 27.733c-0.512 26.539-0.768 28.075-5.163 35.584-5.526 9.348-14.195 16.34-24.524 19.586l-0.308 0.084c-10.965 3.285-185.472 3.243-196.053-0.085zM682.667 405.333v-298.667h-341.333v597.333h341.333v-298.667zM456.32 616.235c-10.333-3.519-18.737-10.43-24.080-19.381l-0.112-0.203c-3.883-6.656-4.608-9.813-4.608-20.651 0-10.923 0.683-13.995 4.736-20.864 5.333-9.088 13.568-16 22.997-19.371 9.173-3.285 104.32-3.285 113.493 0 9.429 3.371 17.664 10.283 22.997 19.371 4.053 6.869 4.736 9.941 4.736 20.864 0 10.837-0.725 13.995-4.608 20.651-5.526 9.348-14.195 16.34-24.524 19.586l-0.308 0.084c-10.709 3.243-100.395 3.157-110.72-0.085zM456.32 445.568c-10.333-3.519-18.737-10.43-24.080-19.381l-0.112-0.203c-3.883-6.656-4.608-9.813-4.608-20.651 0-10.923 0.683-13.995 4.736-20.864 5.333-9.088 13.568-16 22.997-19.371 9.173-3.285 104.32-3.285 113.493 0 9.429 3.371 17.664 10.283 22.997 19.371 4.053 6.869 4.736 9.941 4.736 20.864 0 10.837-0.725 13.995-4.608 20.651-5.526 9.348-14.195 16.34-24.524 19.586l-0.308 0.084c-10.709 3.243-100.395 3.157-110.72-0.085zM456.32 274.901c-10.333-3.519-18.737-10.43-24.080-19.381l-0.112-0.203c-3.883-6.656-4.608-9.813-4.608-20.651 0-10.923 0.683-13.995 4.736-20.864 5.333-9.088 13.568-16 22.997-19.371 9.173-3.285 104.32-3.285 113.493 0 9.429 3.371 17.664 10.283 22.997 19.371 4.053 6.869 4.736 9.941 4.736 20.864 0 10.837-0.725 13.995-4.608 20.651-5.526 9.348-14.195 16.34-24.524 19.586l-0.308 0.084c-10.709 3.243-100.395 3.157-110.72-0.085z" />
<glyph unicode="&#xe92a;" glyph-name="battery-100" d="M413.653 872.235c-10.333-3.519-18.737-10.43-24.080-19.381l-0.112-0.203c-4.395-7.509-4.651-9.045-5.163-35.584l-0.597-27.733-26.709-0.085c-31.019-0.128-43.733-2.688-59.051-11.904-11.947-7.168-26.837-22.827-32.597-34.219-9.856-19.413-9.344-0.811-9.344-337.792 0-338.005-0.555-318.293 9.6-338.347 5.803-11.477 24.576-30.251 36.053-36.053 19.584-9.941 12.373-9.6 210.347-9.6s190.763-0.341 210.347 9.6c11.349 5.76 30.208 24.533 35.883 35.755 10.368 20.395 9.771 0.341 9.728 338.048 0 335.275 0.427 319.232-9.301 338.389-5.76 11.392-20.651 27.051-32.597 34.219-15.317 9.216-28.032 11.776-59.051 11.904l-26.709 0.085-0.597 27.733c-0.512 26.539-0.768 28.075-5.163 35.584-5.526 9.348-14.195 16.34-24.524 19.586l-0.308 0.084c-10.965 3.285-185.472 3.243-196.053-0.085zM682.667 405.333v-298.667h-341.333v597.333h341.333v-298.667zM456.32 616.235c-10.333-3.519-18.737-10.43-24.080-19.381l-0.112-0.203-4.608-7.851-0.469-179.755c-0.299-117.717 0.171-181.973 1.28-186.197 2.56-9.429 10.709-19.712 20.011-25.173l8.192-4.821h110.933l8.192 4.821c9.301 5.461 17.451 15.744 20.011 25.173 1.109 4.224 1.579 68.48 1.28 186.197l-0.469 179.755-4.608 7.851c-5.526 9.348-14.195 16.34-24.524 19.586l-0.308 0.084c-10.709 3.243-100.395 3.157-110.72-0.085z" />
<glyph unicode="&#xe92b;" glyph-name="battery" d="M106.624 744.832c-47.744-8.064-86.955-42.88-101.76-90.325l-4.011-12.8v-387.413l4.011-12.8c13.117-41.864 45.432-74.179 86.363-87.043l0.933-0.253 12.8-4.011h643.413l12.8 4.011c41.864 13.117 74.179 45.432 87.043 86.363l0.253 0.933 4.011 12.8v387.413l-4.011 12.8c-13.049 41.546-44.977 73.67-85.467 86.737l-0.933 0.26-13.696 4.309-316.587 0.256c-174.123 0.128-320.469-0.427-325.163-1.237zM738.56 658.731c11.904-3.541 23.296-14.933 26.837-26.837 2.261-7.552 2.603-32.043 2.603-183.936 0-190.165 0.299-184.235-9.429-196.992-2.603-3.413-8.277-8.32-12.587-10.837l-7.851-4.608h-622.933l-7.851 4.608c-4.793 2.951-8.888 6.476-12.356 10.551l-0.060 0.073c-10.027 13.141-9.6 4.523-9.6 197.163 0 199.467-0.811 186.709 13.099 200.661 13.525 13.525-12.459 12.501 327.509 12.629 267.307 0.128 304.939-0.171 312.619-2.475zM968.32 530.901c-10.333-3.519-18.737-10.43-24.080-19.381l-0.112-0.203-4.608-7.851v-111.189l5.163-8.405c7.549-12.6 21.13-20.904 36.651-20.904s29.102 8.304 36.543 20.711l0.107 0.193 5.163 8.405v111.189l-4.608 7.851c-7.531 12.997-21.374 21.6-37.227 21.6-4.641 0-9.109-0.737-13.295-2.101l0.303 0.085z" />
<glyph unicode="&#xe92c;" glyph-name="battery-charging" d="M106.624 744.875c-47.872-8.192-86.955-42.923-101.76-90.368l-4.011-12.8v-387.413l4.011-12.8c13.11-41.577 45.023-73.743 85.505-86.946l0.937-0.265c11.264-3.669 15.147-3.925 69.291-4.565 37.675-0.427 59.691-0.043 64.171 1.195 9.813 2.645 20.011 10.667 25.557 20.096 4.139 7.040 4.821 10.027 4.821 20.992 0 10.837-0.725 13.995-4.608 20.651-5.077 8.299-12.339 14.821-20.993 18.862l-0.298 0.125c-3.285 1.408-22.144 2.347-59.435 2.987l-54.613 0.896-7.851 4.608c-4.793 2.951-8.888 6.476-12.356 10.551l-0.060 0.073c-10.027 13.141-9.6 4.608-9.6 196.309 0 199.040-0.725 187.691 12.928 201.344 12.8 12.757 13.995 12.928 98.859 12.928 82.261 0 83.755 0.171 95.36 11.477 9.984 9.643 13.739 18.219 13.739 31.189 0 16.768-8.064 29.739-23.723 38.144-6.741 3.584-8.533 3.669-87.083 3.925-44.117 0.128-84.096-0.384-88.789-1.195zM455.168 744.064c-4.459-1.765-8.295-3.815-11.858-6.236l0.21 0.135c-5.803-4.096-181.632-266.496-185.216-276.309-6.869-19.029 2.688-42.368 21.163-51.456l8.107-4.011 186.88-1.707-64.896-97.28c-35.669-53.504-65.621-99.968-66.517-103.253-5.248-18.688 2.901-38.912 19.584-48.725 9.131-5.333 23.296-7.168 32.64-4.224 16.171 5.12 14.763 3.285 108.416 143.744 48.939 73.344 90.112 136.789 91.52 140.928 6.784 19.883-4.139 42.923-24.619 52.011-3.584 1.579-28.757 2.347-98.261 2.987l-93.44 0.853 64.171 96.213c35.285 52.949 65.237 99.285 66.56 103.040 11.435 32.427-22.016 65.152-54.443 53.291zM626.987 744.32c-10.326-3.575-18.722-10.506-24.079-19.465l-0.113-0.204c-3.883-6.656-4.608-9.813-4.608-20.651 0-10.923 0.683-13.995 4.736-20.864 2.603-4.395 7.381-10.069 10.667-12.544 11.221-8.576 15.061-9.088 67.499-9.173 57.301-0.085 61.867-0.896 73.984-13.013 13.653-13.653 12.928-2.389 12.928-200.448 0-190.165 0.299-184.235-9.429-196.992-2.603-3.413-8.277-8.32-12.587-10.837l-7.851-4.608-80.213-0.853c-77.952-0.811-80.384-0.939-87.083-4.523-15.659-8.405-23.723-21.376-23.723-38.144 0-12.971 3.755-21.547 13.739-31.232 11.989-11.648 12.587-11.733 105.941-11.051 81.664 0.555 83.499 0.683 95.232 4.523 41.409 13.508 73.312 45.678 86.186 86.313l0.257 0.94 4.011 12.8v387.413l-4.011 12.8c-13.004 41.539-44.957 73.646-85.471 86.612l-0.929 0.257c-13.227 4.096-15.616 4.224-70.869 4.693-44.117 0.384-58.795 0-64.213-1.749zM968.32 530.901c-10.333-3.519-18.737-10.43-24.080-19.381l-0.112-0.203-4.608-7.851v-111.189l5.163-8.405c7.549-12.6 21.13-20.904 36.651-20.904s29.102 8.304 36.543 20.711l0.107 0.193 5.163 8.405v111.189l-4.608 7.851c-7.531 12.997-21.374 21.6-37.227 21.6-4.641 0-9.109-0.737-13.295-2.101l0.303 0.085z" />
<glyph unicode="&#xe92d;" glyph-name="bed" d="M148.352 743.552c-29.355-7.68-55.168-34.688-61.269-64.171-1.237-5.845-1.664-74.837-1.365-211.883l0.469-203.221 5.163-8.405c6.229-10.155 18.603-18.901 28.885-20.437l7.467-1.109 0.597-27.691c0.555-27.435 0.597-27.819 5.717-36.096 7.549-12.6 21.13-20.904 36.651-20.904s29.102 8.304 36.543 20.711l0.107 0.193c5.12 8.32 5.163 8.661 5.717 36.267l0.597 27.861h596.736l0.597-27.861c0.555-27.605 0.597-27.947 5.717-36.267 7.549-12.6 21.13-20.904 36.651-20.904s29.102 8.304 36.543 20.711l0.107 0.193c5.12 8.277 5.163 8.661 5.717 36.096l0.597 27.691 7.467 1.109c10.283 1.536 22.656 10.283 28.885 20.437l5.163 8.405 0.512 74.667c0.512 81.067-0.043 87.936-8.96 105.515-5.803 11.392-20.693 27.051-32.64 34.219-20.821 12.544-2.133 11.776-293.845 11.904l-261.547 0.085-0.043 90.027c0 97.195-0.384 102.229-9.301 119.765-9.813 19.413-32.384 37.547-53.675 43.093-16.597 4.309-113.365 4.309-129.963 0zM256 576v-85.333h-85.333v170.667h85.333v-85.333zM853.333 362.667v-42.667h-682.667v85.333h682.667v-42.667z" />
<glyph unicode="&#xe92e;" glyph-name="bedroom" d="M200.32 786.901c-10.333-3.519-18.737-10.43-24.080-19.381l-0.112-0.203-4.608-7.851-0.853-158.976-0.853-159.019-13.653-6.997c-31.165-16.348-54.678-43.731-65.607-76.836l-0.27-0.945c-3.669-11.264-3.925-15.147-4.565-69.291-0.427-37.675-0.043-59.691 1.195-64.171 2.645-9.813 10.667-20.011 20.096-25.557 7.936-4.651 9.088-4.821 35.797-5.376l27.563-0.597 0.597-27.733c0.555-27.435 0.597-27.819 5.717-36.096 7.549-12.6 21.13-20.904 36.651-20.904s29.102 8.304 36.543 20.711l0.107 0.193c5.12 8.32 5.163 8.661 5.717 36.267l0.597 27.861h511.403l0.597-27.861c0.555-27.605 0.597-27.947 5.717-36.267 7.549-12.6 21.13-20.904 36.651-20.904s29.102 8.304 36.543 20.711l0.107 0.193c5.12 8.277 5.163 8.661 5.717 36.096l0.597 27.733 27.563 0.597c26.709 0.555 27.861 0.725 35.797 5.376 9.508 5.774 16.629 14.667 20.007 25.234l0.089 0.323c1.237 4.48 1.621 26.496 1.195 64.171-0.64 54.144-0.896 58.027-4.565 69.291-11.2 34.051-34.712 61.433-65.145 77.43l-0.733 0.351-13.653 6.997-0.853 159.019-0.853 158.976-4.651 7.936c-7.625 12.82-21.406 21.277-37.163 21.277s-29.538-8.457-37.054-21.079l-0.109-0.198c-4.48-7.637-4.693-9.045-5.205-35.669l-0.597-27.733h-91.307l-7.040 14.080c-16.496 31.846-44.653 55.723-78.68 66.226l-0.936 0.249c-13.227 3.797-16.043 3.925-77.739 3.925s-64.512-0.128-77.739-3.925c-34.963-10.751-63.12-34.628-79.269-65.74l-0.347-0.734-7.040-14.080h-91.307l-0.597 27.733c-0.512 26.539-0.768 28.075-5.163 35.584-7.531 12.997-21.374 21.6-37.227 21.6-4.641 0-9.109-0.737-13.295-2.101l0.303 0.085zM567.808 701.44c9.941-2.944 21.632-13.227 25.472-22.4 1.323-3.243 3.2-11.733 4.096-18.901 1.877-14.891 7.125-25.301 16.213-32.213 11.648-8.875 13.611-9.088 86.571-9.173l67.84-0.085v-170.667h-512v170.667l67.84 0.085c72.96 0.085 74.923 0.299 86.571 9.173 9.088 6.912 14.336 17.323 16.213 32.213 2.133 16.725 4.907 23.211 13.781 31.787 11.349 11.051 16 11.819 70.869 11.947 37.931 0.085 49.707-0.427 56.533-2.432zM823.893 360.064c6.535-2.064 12.098-5.629 16.493-10.305l0.019-0.020c10.709-10.709 12.928-19.115 12.928-48.811v-23.595h-682.667v23.595c0 29.739 2.219 38.101 12.971 48.811 4.258 4.515 9.535 8.021 15.467 10.153l0.277 0.087c12.416 3.797 611.669 3.925 624.512 0.085z" />
<glyph unicode="&#xe92f;" glyph-name="bell" d="M492.373 916.352c-45.44-4.395-70.912-11.051-107.52-28.075-103.851-48.341-171.52-154.88-171.52-270.123 0-68.523-9.515-144.555-24.661-197.205-18.176-63.061-43.477-109.611-78.72-144.853-21.888-21.845-25.813-29.312-24.107-45.739 1.152-11.093 4.523-17.877 13.312-26.368 13.397-13.013-22.443-11.989 413.568-11.904 322.133 0.043 392.064 0.469 397.355 2.347 16.633 6.077 28.291 21.763 28.291 40.172 0 4.767-0.782 9.352-2.224 13.633l0.088-0.301c-2.347 7.040-6.4 12.16-22.101 27.989-19.612 19.383-36.014 41.959-48.371 66.896l-0.653 1.456c-25.045 49.877-40.491 104.875-48.341 171.989-3.2 27.435-4.181 42.752-6.101 93.867-2.048 54.315-5.376 74.411-18.219 110.080-36.437 101.333-127.317 176.64-232.661 192.768-16.768 2.603-55.467 4.523-67.413 3.371zM535.552 830.208c70.357-7.723 131.2-49.28 164.864-112.64 18.133-34.219 24.917-65.237 24.917-114.603 0.043-25.813 3.755-78.080 7.637-107.136 9.899-74.155 28.928-137.685 58.069-194.176l12.544-24.32h-583.168l12.544 24.32c29.141 56.491 48.085 119.851 58.069 194.176 3.755 27.947 7.595 82.432 7.637 107.989 0 24.789 2.432 50.176 6.187 65.195 19.919 77.563 79.966 137.384 156.163 156.651l1.49 0.319c14.598 3.582 31.357 5.636 48.596 5.636 8.615 0 17.111-0.513 25.458-1.511l-1.008 0.098zM424.363 103.893c-10.581-3.243-23.381-15.701-26.325-25.6-6.187-20.821 0.384-37.504 24.235-61.397 13.099-13.184 17.963-16.768 31.701-23.467 22.528-11.008 34.261-13.824 58.027-13.824s35.499 2.816 58.027 13.824c13.739 6.699 18.603 10.283 31.701 23.467 23.851 23.893 30.421 40.576 24.235 61.397-3.072 10.325-15.701 22.315-27.008 25.685-10.709 3.157-15.445 3.328-24.661 0.768-9.216-2.517-18.005-9.259-25.941-19.797-8.107-10.795-13.525-15.147-22.784-18.432-4.035-1.52-8.699-2.4-13.568-2.4s-9.533 0.88-13.841 2.489l0.273-0.089c-9.259 3.285-14.677 7.637-22.784 18.432-14.464 19.243-30.72 25.259-51.285 18.944z" />
<glyph unicode="&#xe930;" glyph-name="bell-off" d="M29.653 957.568c-10.333-3.519-18.737-10.43-24.080-19.381l-0.112-0.203c-3.883-6.656-4.608-9.813-4.608-20.651s0.683-13.952 4.565-20.48c2.56-4.267 51.029-54.059 109.397-112.341l104.789-104.704-2.261-12.203c-1.237-6.741-3.029-32.597-3.968-57.472-3.371-89.045-9.557-136.533-24.704-189.184-18.176-63.061-43.477-109.611-78.72-144.853-15.019-14.976-19.712-20.864-21.888-27.179-1.636-4.248-2.583-9.164-2.583-14.3 0-11.684 4.902-22.223 12.762-29.672l0.018-0.017c14.037-13.995-12.544-12.928 316.331-12.928h292.821l122.88-123.008c69.163-69.205 126.251-124.971 130.56-127.573 6.528-3.883 9.643-4.565 20.48-4.565 10.965 0 13.952 0.683 20.992 4.821 20.309 11.947 27.605 38.4 15.915 57.984-2.347 3.925-217.6 220.416-478.379 481.067-466.048 465.792-474.325 473.941-483.413 476.587-10.965 3.2-17.237 3.243-26.795 0.256zM476.757 915.456c-42.748-5.14-81.443-18.725-115.658-39.060l1.354 0.745c-20.565-12.075-25.941-16.853-30.72-27.136-2.598-5.315-4.117-11.566-4.117-18.171 0-21.967 16.803-40.010 38.256-41.977l0.165-0.012c11.307-1.195 17.707 0.939 36.907 12.288 30.858 18.74 68.16 29.832 108.053 29.832 0.653 0 1.305-0.003 1.956-0.009l-0.1 0.001c99.243 0 186.197-70.187 207.488-167.467 2.773-12.757 3.755-26.112 4.949-66.304 1.621-54.315 4.565-86.912 11.264-126.080 5.077-29.696 16.64-78.336 20.565-86.613 5.803-12.203 23.595-22.827 38.229-22.827 19.627 0 38.656 16.768 41.856 36.821 0.768 4.864-0.64 14.080-4.949 32.341-14.976 63.275-21.504 117.504-21.589 178.304-0.043 42.539-3.883 68.139-15.531 103.168-36.667 107.083-129.424 185.703-242.313 201.379l-1.57 0.179c-12.079 1.37-26.080 2.151-40.263 2.151-12.053 0-23.973-0.564-35.738-1.668l1.505 0.114zM460.8 438.613l161.28-161.28h-401.664l12.544 24.32c37.803 73.259 57.771 154.837 64.213 261.973 1.195 19.968 2.219 36.267 2.261 36.267l161.365-161.28zM424.363 103.893c-10.581-3.243-23.381-15.701-26.325-25.6-6.187-20.821 0.384-37.504 24.235-61.397 13.099-13.184 17.963-16.768 31.701-23.467 22.528-11.008 34.261-13.824 58.027-13.824s35.499 2.816 58.027 13.824c13.739 6.699 18.603 10.283 31.701 23.467 23.851 23.893 30.421 40.576 24.235 61.397-3.072 10.325-15.701 22.315-27.008 25.685-10.709 3.157-15.445 3.328-24.661 0.768-9.216-2.517-18.005-9.259-25.941-19.797-8.107-10.795-13.525-15.147-22.784-18.432-4.035-1.52-8.699-2.4-13.568-2.4s-9.533 0.88-13.841 2.489l0.273-0.089c-9.259 3.285-14.677 7.637-22.784 18.432-14.464 19.243-30.72 25.259-51.285 18.944z" />
<glyph unicode="&#xe931;" glyph-name="bike" d="M755.2 786.944c-3.755-1.152-21.803-9.728-40.107-18.987-28.501-14.421-34.773-18.347-43.733-27.221-17.579-17.493-27.691-43.264-25.515-65.109 0.555-5.76 4.437-27.264 8.576-47.787 5.717-28.459 7.040-37.76 5.504-39.211-3.584-3.328-144.896-93.696-145.963-93.355-0.555 0.213-5.76 23.637-11.52 52.053-5.76 28.459-12.16 56.149-14.251 61.525-9.387 24.619-35.285 45.611-62.379 50.645-15.061 2.773-87.168 2.389-96.853-0.512-10.637-3.329-19.306-10.321-24.721-19.468l-0.111-0.202c-3.883-6.656-4.608-9.813-4.608-20.651 0-10.923 0.683-13.995 4.736-20.864 2.603-4.395 7.381-10.069 10.667-12.544 10.837-8.277 15.872-9.088 56.704-9.173 20.907-0.043 37.973-0.299 37.973-0.597 0-0.256 5.76-29.227 12.8-64.341s12.8-64.725 12.8-65.792c0-1.707-57.984-40.235-62.251-41.344-0.939-0.256-7.424 3.84-14.379 9.088-58.923 44.416-138.155 46.080-199.808 4.181-30.549-20.693-53.504-51.925-65.536-89.045-16.981-52.309-5.547-113.493 29.227-156.8 35.285-43.904 86.357-66.987 142.080-64.171 75.477 3.797 137.131 54.443 157.312 129.237 5.333 19.84 5.376 60.416 0.085 80.939-1.061 3.503-2.185 8.186-3.090 12.945l-0.153 0.964c-42.275-22.591 42.923 32.704 128.387 87.621l132.904 79.931c0.768-0.981 12.928-63.616 12.928-66.56 0-1.579-1.493-3.371-3.328-3.925-6.016-1.92-28.032-17.195-38.187-26.453-57.557-52.821-70.699-143.787-30.507-211.285 23.191-37.935 59.438-65.95 102.363-77.998l1.231-0.295c14.635-3.883 20.693-4.565 42.667-4.693 28.459-0.171 40.32 1.963 64.853 11.861 99.456 39.979 136.917 159.275 78.848 251.136-10.947 15.991-23.819 29.65-38.508 41.084l-0.404 0.303c-21.665 16.964-48.12 28.814-77.012 33.288l-0.94 0.12c-6.58 0.832-12.203 1.849-17.725 3.13l1.171-0.229c-0.213 0.256-10.709 52.565-23.424 116.224l-23.083 115.712 30.933 15.445c33.963 17.024 41.387 22.869 46.037 36.565 1.607 4.289 2.538 9.246 2.538 14.421 0 23.329-18.911 42.24-42.24 42.24-4.643 0-9.111-0.749-13.29-2.133l0.298 0.086zM283.307 358.144c5.163-1.749 9.344-3.925 9.301-4.864s-13.483-10.283-29.867-20.779c-35.669-22.869-42.709-29.099-46.805-41.429-1.444-4.097-2.278-8.821-2.278-13.741 0-23.517 19.064-42.581 42.581-42.581 0.141 0 0.281 0.001 0.422 0.002h-0.021c10.965 0.085 17.024 3.029 48.469 23.424 40.875 26.453 36.949 25.173 35.584 11.861-5.333-52.309-54.955-88.107-104.405-75.435-28.629 7.381-49.536 25.856-59.691 52.864-8.704 23.040-7.296 44.971 4.309 68.565 11.278 22.174 31.433 38.456 55.658 44.299l0.577 0.117c12.288 2.773 34.304 1.707 46.165-2.304zM810.496 351.147c25.525-15.067 42.378-42.432 42.378-73.734 0-17.488-5.261-33.748-14.286-47.282l0.196 0.312c-19.925-29.995-56.619-44.544-90.496-35.84-28.629 7.381-49.536 25.856-59.691 52.864-3.483 9.125-5.5 19.679-5.5 30.703 0 4.826 0.386 9.561 1.13 14.177l-0.067-0.507c2.389 13.099 13.611 35.883 21.333 43.349l6.016 5.76 0.939-4.053c0.555-2.261 4.011-19.072 7.637-37.376 3.669-18.304 7.552-35.584 8.661-38.4 10.581-27.605 47.829-35.029 69.12-13.739 7.467 7.467 12.8 19.584 12.8 29.099 0 4.309-10.667 60.971-14.507 77.227-1.28 5.461 1.664 4.907 14.336-2.56z" />
<glyph unicode="&#xe932;" glyph-name="bill-dollar" d="M191.019 871.552c-28.629-7.509-52.864-32-60.459-61.227-2.219-8.491-2.56-57.387-2.475-381.867 0.043-306.432 0.469-373.291 2.347-378.539 3.371-9.429 10.283-17.664 19.371-22.997 6.741-3.968 10.027-4.736 20.011-4.736 11.392 0 13.909 0.853 55.467 18.645 23.936 10.24 44.288 18.603 45.227 18.603s19.755-7.723 41.813-17.152c22.059-9.429 43.093-18.091 46.72-19.243 11.819-3.797 20.352-1.408 66.347 18.347l43.947 18.859 43.947-18.859c45.995-19.755 54.528-22.144 66.347-18.347 3.627 1.152 24.661 9.813 46.72 19.243s40.875 17.152 41.813 17.152c0.939 0 21.291-8.32 45.227-18.475 27.136-11.52 46.507-18.773 51.456-19.243 18.133-1.749 37.333 10.752 43.093 28.16 2.56 7.595 2.816 17.024 2.389 81.749l-0.512 73.173-4.651 7.936c-7.625 12.82-21.406 21.277-37.163 21.277s-29.538-8.457-37.054-21.079l-0.109-0.198c-4.651-7.893-4.651-8.064-5.205-45.909-0.299-20.907-0.725-37.973-0.939-37.973s-10.325 4.352-22.485 9.728c-20.011 8.747-23.253 9.685-34.048 9.685-11.435 0-13.824-0.811-55.723-18.944l-43.776-18.944-44.117 19.029c-58.667 25.344-51.669 25.344-110.507 0l-44.16-18.987-43.733 18.901c-41.813 18.133-44.203 18.944-55.637 18.944-10.795 0-14.037-0.939-34.048-9.685-12.16-5.376-22.315-9.728-22.613-9.728-0.256 0-0.512 148.608-0.512 330.24v330.24l195.84 0.085c159.147 0.043 197.035 0.512 202.24 2.347 9.429 3.371 17.664 10.283 22.997 19.371 4.053 6.869 4.736 9.941 4.736 20.864 0 10.837-0.725 13.995-4.608 20.651-3.006 4.864-6.602 9.016-10.76 12.523l-0.077 0.063c-12.843 9.771-4.651 9.429-221.611 9.344-183.211-0.085-200.789-0.341-211.072-3.029zM754.987 744.235c-15.061-4.736-25.6-16.811-28.843-33.195l-1.835-9.173-9.344-2.901c-32.89-10.812-58.434-35.865-69.694-67.671l-0.236-0.766c-3.584-10.837-4.181-15.872-4.096-34.048 0.085-18.773 0.683-22.869 4.736-34.133 11.401-30.768 35.237-54.605 65.243-65.757l0.763-0.248c11.989-4.309 15.061-4.651 47.787-5.333 38.485-0.768 42.069-1.621 47.872-11.093 1.987-2.979 3.17-6.642 3.17-10.581s-1.184-7.602-3.215-10.652l0.044 0.071c-6.485-10.581-7.509-10.752-71.424-10.752-62.891 0-68.053-0.597-79.616-9.429-3.413-2.603-8.32-8.277-10.837-12.587-3.883-6.656-4.608-9.813-4.608-20.651 0-10.923 0.683-13.995 4.736-20.864 5.333-9.088 13.568-16 22.997-19.371 4.181-1.493 15.019-2.304 31.36-2.347l25.003-0.085 1.152-7.637c1.536-10.368 10.24-22.741 20.437-29.013 7.424-4.565 9.899-5.163 21.461-5.163s14.037 0.597 21.461 5.163c10.624 6.528 19.029 18.773 20.523 29.824l1.109 8.277 12.117 3.968c30.165 9.856 55.936 35.285 67.157 66.261 4.139 11.435 4.608 15.147 4.608 34.987s-0.469 23.552-4.608 34.987c-9.698 26.32-28.563 47.33-52.635 59.578l-0.613 0.283c-19.115 9.472-32.043 11.733-66.219 11.776-31.957 0.043-36.352 1.152-42.24 10.795-1.858 3.054-2.959 6.748-2.959 10.698 0 8.064 4.585 15.058 11.29 18.517l0.117 0.055c4.309 2.219 14.336 2.645 64.512 2.731 63.872 0.085 66.645 0.384 78.123 9.173 3.285 2.475 8.064 8.149 10.667 12.544 4.053 6.869 4.736 9.941 4.736 20.864 0 10.837-0.725 13.995-4.608 20.651-10.155 17.28-22.229 22.016-56.021 22.016h-23.424l-1.152 7.253c-2.964 15.823-14.367 28.392-29.267 32.987l-0.301 0.080c-3.746 1.341-8.068 2.116-12.572 2.116-4.594 0-8.999-0.807-13.082-2.286l0.267 0.085zM328.32 530.901c-10.333-3.519-18.737-10.43-24.080-19.381l-0.112-0.203c-3.883-6.656-4.608-9.813-4.608-20.651 0-10.923 0.683-13.995 4.736-20.864 5.333-9.088 13.568-16 22.997-19.371 9.344-3.328 189.483-3.328 198.827 0 9.429 3.371 17.664 10.283 22.997 19.371 4.053 6.869 4.736 9.941 4.736 20.864 0 10.837-0.725 13.995-4.608 20.651-5.526 9.348-14.195 16.34-24.524 19.586l-0.308 0.084c-10.965 3.285-185.472 3.243-196.053-0.085zM328.32 360.235c-10.333-3.519-18.737-10.43-24.080-19.381l-0.112-0.203c-3.883-6.656-4.608-9.813-4.608-20.651 0-10.923 0.683-13.995 4.736-20.864 5.333-9.088 13.568-16 22.997-19.371 9.344-3.328 189.483-3.328 198.827 0 9.429 3.371 17.664 10.283 22.997 19.371 4.053 6.869 4.736 9.941 4.736 20.864 0 10.837-0.725 13.995-4.608 20.651-5.526 9.348-14.195 16.34-24.524 19.586l-0.308 0.084c-10.965 3.285-185.472 3.243-196.053-0.085z" />
<glyph unicode="&#xe933;" glyph-name="black-board" d="M369.92 872.064c-14.301-5.337-24.889-17.565-27.816-32.535l-0.045-0.276-1.152-7.253-90.667-0.085c-80-0.085-91.989-0.469-101.888-3.029-28.629-7.509-52.864-32-60.459-61.227-3.84-14.677-3.84-453.973 0-468.651 3.968-15.36 10.667-26.709 22.869-38.912 22.016-22.016 33.963-25.429 89.259-25.429 22.357 0 40.619-0.597 40.661-1.28 0-0.725-6.315-39.424-14.037-86.059-13.184-79.36-13.952-85.333-11.904-93.013 7.765-29.312 40.064-42.155 64.64-25.643 15.957 10.752 15.701 9.941 32.896 112.128 8.448 50.219 15.403 91.861 15.403 92.587 0 0.683 31.829 1.28 70.741 1.28h70.784l0.469-70.528 0.512-70.528 5.163-8.405c2.901-4.693 8.747-10.795 13.269-13.867 20.096-13.483 47.019-7.296 60.032 13.867l5.163 8.405 0.512 70.528 0.469 70.528h70.784c38.912 0 70.741-0.597 70.784-1.28 0-0.725 6.869-42.325 15.275-92.459 17.152-102.187 16.939-101.419 32.981-112.256 24.576-16.512 56.875-3.669 64.64 25.643 2.048 7.68 1.28 13.653-11.904 93.013-7.723 46.635-14.037 85.333-14.037 86.059 0.043 0.683 18.304 1.28 40.661 1.28 43.989 0 52.395 1.152 69.035 9.6 11.349 5.76 30.208 24.533 35.883 35.755 10.197 20.096 9.771 8.747 9.728 252.715 0 242.219 0.299 234.197-9.301 253.056-5.76 11.392-20.651 27.051-32.597 34.219-19.157 11.52-21.717 11.776-122.965 11.904l-90.667 0.085-1.152 7.253c-2.957 15.462-13.831 27.823-28.156 32.846l-0.303 0.092c-4.056 1.399-8.73 2.207-13.592 2.207-10.549 0-20.21-3.802-27.688-10.11l0.064 0.053c-6.699-5.547-14.933-20.949-14.933-27.989v-4.352h-85.333c-81.408 0-85.333 0.128-85.333 3.115 0 7.381-6.059 20.096-12.757 26.795-7.7 7.713-18.345 12.484-30.105 12.484-4.973 0-9.747-0.853-14.182-2.422l0.298 0.092zM853.333 533.333v-213.333h-682.667v426.667h682.667v-213.333z" />
<glyph unicode="&#xe934;" glyph-name="blueprint-architecture" d="M779.947 873.643c-9.259-1.707-25.173-8.235-33.28-13.611-4.693-3.115-58.197-55.467-118.912-116.267-96-96.213-110.635-111.531-112.469-117.845l-2.133-7.253h-171.605l-0.555 49.067-0.512 49.067-4.608 7.851c-5.492 9.232-13.976 16.195-24.092 19.62l-0.314 0.092c-11.264 3.84-116.437 2.517-131.413-1.664-41.899-11.691-76.629-45.739-89.856-88.192l-4.011-12.8v-515.413l4.011-12.8c12.971-41.643 44.16-73.131 86.443-87.296l11.947-4.011 336.683-0.469c367.872-0.469 347.605-0.981 367.744 9.216 11.349 5.76 30.208 24.533 35.883 35.755 10.197 20.096 9.771 8.832 9.771 252.032 0 144.341-0.597 225.92-1.749 231.851-5.504 29.141-32.939 58.581-60.288 64.683-4.888 1.017-8.657 1.975-12.37 3.062l1.149-0.288c-1.579 0.469 7.808 11.136 26.667 30.123 16 16.171 30.976 32.469 33.323 36.224 11.52 18.688 15.787 43.776 10.923 64.427-5.035 21.291-8.917 26.581-49.493 67.627-38.741 39.211-51.413 49.493-66.645 54.059-8.917 2.688-32.683 4.565-40.235 3.157zM754.773 631.893l-98.56-98.56h-58.88v58.88l197.077 197.12 58.923-58.837-98.56-98.603zM256 469.333v-192l-26.88-0.043c-24.107-0.085-46.933-2.517-55.467-5.931-2.816-1.152-2.987 7.851-2.987 175.275 0 199.339-0.725 188.117 12.843 201.643 10.965 10.965 17.493 12.757 47.317 12.928l25.173 0.128v-192zM512.299 505.6c0.555-26.752 0.725-28.032 5.291-35.797 2.603-4.395 7.381-10.069 10.667-12.544 11.605-8.875 13.696-9.088 85.419-9.173 57.728-0.085 67.797 0.299 75.093 2.731 7.253 2.475 13.867 8.277 48.597 42.667l40.235 39.851h75.733v-426.709l-652.8 0.896-7.851 4.608c-9.348 5.526-16.34 14.195-19.586 24.524l-0.084 0.308c-1.316 3.811-2.076 8.202-2.076 12.771 0 11.488 4.804 21.853 12.513 29.197l0.016 0.015c12.416 12.373 16.085 13.056 72.533 13.056 56.32 0 60.16 0.683 72.405 12.928 13.611 13.653 12.928 4.181 12.928 175.957v152.448h170.368l0.597-27.733z" />
</font>
</defs>
</svg>
